<svg width="48" height="49" xmlns="http://www.w3.org/2000/svg" xmlns:xlink="http://www.w3.org/1999/xlink" xmlns:svgjs="http://svgjs.com/svgjs" viewBox="0 0.5 48 48.001" fill="#e13856"><svg xmlns="http://www.w3.org/2000/svg" width="48" height="49" viewBox="0 0.999 48 48"><path paint-order="stroke fill markers" fill-rule="evenodd" d="M20.378 49H0V.998h33.382l-4.124 4H3.999v40h14.725c1.905 0 3.367-.636 4.345-1.893 1.36-1.747 1.54-4.402 1.453-6.321A21.345 21.345 0 0 0 24 33c.02.005 2.388.655 5.023.655 1.975 0 3.564-.363 4.721-1.077C35.241 31.654 36 30.143 36 28.086V24.3l4-3.902v9.375c0 1.14-.753 2.876-2.177 5.022-1.336 2.013-3.205 4.28-5.262 6.385-2.171 2.22-4.401 4.119-6.449 5.488C23.832 48.193 21.85 49 20.378 49zm.33-20a.709.709 0 0 1-.494-1.218l1.168-1.134.986 1.018-1.166 1.134a.71.71 0 0 1-.494.2zM18 29h-.001-8v-2h8V28.998zm5.588-1.737l-1.762-1.817c.948-2.639 1.99-4.713 4.248-6.903l3.988-3.866 4.542 4.686-3.988 3.868c-2.257 2.19-4.362 3.167-7.027 4.032zm13.004-9.196l-5.172-5.341 10.274-9.964c.71-.69 1.592-1.054 2.55-1.054.951 0 1.898.376 2.598 1.031A3.65 3.65 0 0 1 48 5.434a3.7 3.7 0 0 1-1.132 2.673l-10.275 9.96zm-4.968-7.43c-.65-.671-.624-1.754.056-2.414l6.938-6.73c.33-.318.758-.494 1.206-.494.459 0 .888.183 1.208.514l-9.407 9.124z"/></svg></svg>