<svg width="564" height="496" xmlns="http://www.w3.org/2000/svg" xmlns:xlink="http://www.w3.org/1999/xlink" xmlns:svgjs="http://svgjs.com/svgjs" viewBox="133 4144 564 496"><svg width="106" height="106" xmlns="http://www.w3.org/2000/svg" xmlns:xlink="http://www.w3.org/1999/xlink" xmlns:svgjs="http://svgjs.com/svgjs" fill="#dfdfda" x="544" y="4144"><svg xmlns="http://www.w3.org/2000/svg" xmlns:xlink="http://www.w3.org/1999/xlink" width="106" height="106"><path paint-order="stroke fill markers" fill-rule="evenodd" d="M.116 49.527C2.033 20.322 27.265-1.802 56.472.116c29.207 1.916 51.33 27.15 49.412 56.355-1.917 29.208-27.15 51.33-56.356 49.413C20.32 103.966-1.802 78.735.116 49.527z"/></svg></svg><svg width="25" height="32" xmlns="http://www.w3.org/2000/svg" xmlns:xlink="http://www.w3.org/1999/xlink" xmlns:svgjs="http://svgjs.com/svgjs" fill="#fdfcfb" x="596" y="4167"><svg xmlns="http://www.w3.org/2000/svg" xmlns:xlink="http://www.w3.org/1999/xlink" width="25" height="32"><path paint-order="stroke fill markers" fill-rule="evenodd" d="M25 31.653c0 .045-.67.087-1.896.126l-5.213.106c-4.423.061-10.587.103-17.544.114H.003v-.346C0 30.538 0 29.363 0 28.17c0-7.781.039-14.823.101-19.921.044-2.458.083-4.493.11-6.037C.252.787.3 0 .348 0 .394 0 .44.787.48 2.212c.03 1.544.065 3.579.11 6.037.063 5.098.102 12.14.102 19.921l-.001 3.483-.345-.344c6.957.01 13.12.053 17.544.114l5.213.106c1.226.038 1.896.08 1.896.124z"/></svg></svg><svg width="1" height="9" xmlns="http://www.w3.org/2000/svg" xmlns:xlink="http://www.w3.org/1999/xlink" xmlns:svgjs="http://svgjs.com/svgjs" viewBox="0.24 0 0.521 9" fill="#fdfcfb" x="597" y="4153"><svg xmlns="http://www.w3.org/2000/svg" xmlns:xlink="http://www.w3.org/1999/xlink" width="1" height="9" viewBox="0.239 -0.001 0.521 9.001"><path paint-order="stroke fill markers" fill-rule="evenodd" d="M.5 0c.143 0 .26 2.013.26 4.498C.76 6.986.643 9 .5 9 .356 9 .24 6.986.24 4.498.24 2.013.355 0 .5 0z"/></svg></svg><svg width="6" height="6" xmlns="http://www.w3.org/2000/svg" xmlns:xlink="http://www.w3.org/1999/xlink" xmlns:svgjs="http://svgjs.com/svgjs" fill="#fdfcfb" x="615" y="4160"><svg xmlns="http://www.w3.org/2000/svg" xmlns:xlink="http://www.w3.org/1999/xlink" width="6" height="6"><path paint-order="stroke fill markers" fill-rule="evenodd" d="M5.99.009c.129.13-1.104 1.572-2.756 3.224C1.582 4.886.137 6.12.009 5.99c-.13-.129 1.106-1.573 2.757-3.225C4.418 1.114 5.861-.12 5.991.009z"/></svg></svg><svg width="8" height="5" xmlns="http://www.w3.org/2000/svg" xmlns:xlink="http://www.w3.org/1999/xlink" xmlns:svgjs="http://svgjs.com/svgjs" fill="#fdfcfb" x="628" y="4175"><svg xmlns="http://www.w3.org/2000/svg" xmlns:xlink="http://www.w3.org/1999/xlink" width="8" height="5" viewBox="0 -0.001 8 5"><path paint-order="stroke fill markers" fill-rule="evenodd" d="M7.996.024c.093.19-1.7 1.288-3.892 2.652C1.908 4.036.127 5.151.006 4.983c-.118-.163 1.492-1.566 3.718-2.945C5.946.658 7.909-.157 7.996.024z"/></svg></svg><svg width="12" height="1" xmlns="http://www.w3.org/2000/svg" xmlns:xlink="http://www.w3.org/1999/xlink" xmlns:svgjs="http://svgjs.com/svgjs" viewBox="0 0.24 12 0.52" fill="#fdfcfb" x="632" y="4198"><svg xmlns="http://www.w3.org/2000/svg" xmlns:xlink="http://www.w3.org/1999/xlink" width="12" height="1" viewBox="0 0.239 12 0.52"><path paint-order="stroke fill markers" fill-rule="evenodd" d="M12 .5c0 .142-2.686.26-6 .26-3.315 0-6-.118-6-.26C0 .356 2.685.24 6 .24c3.314 0 6 .116 6 .26z"/></svg></svg><svg width="11" height="1" xmlns="http://www.w3.org/2000/svg" xmlns:xlink="http://www.w3.org/1999/xlink" xmlns:svgjs="http://svgjs.com/svgjs" viewBox="0 0.24 11 0.519" fill="#fdfcfb" x="548" y="4197"><svg xmlns="http://www.w3.org/2000/svg" xmlns:xlink="http://www.w3.org/1999/xlink" width="11" height="1" viewBox="0 0.24 11 0.519"><path paint-order="stroke fill markers" fill-rule="evenodd" d="M11 .5c0 .143-2.464.26-5.5.26C2.46.76 0 .642 0 .5 0 .355 2.46.24 5.5.24c3.036 0 5.5.115 5.5.26z"/></svg></svg><svg width="9" height="7" xmlns="http://www.w3.org/2000/svg" xmlns:xlink="http://www.w3.org/1999/xlink" xmlns:svgjs="http://svgjs.com/svgjs" fill="#fdfcfb" x="556" y="4215"><svg xmlns="http://www.w3.org/2000/svg" xmlns:xlink="http://www.w3.org/1999/xlink" width="9" height="7" viewBox="0 -0.001 9 7"><path paint-order="stroke fill markers" fill-rule="evenodd" d="M8.994.008C9.118.145 7.2 1.82 4.713 3.754 2.224 5.685.117 7.134.004 6.99c-.111-.144 1.806-1.82 4.283-3.744C6.763 1.32 8.871-.127 8.994.008z"/></svg></svg><svg width="6" height="10" xmlns="http://www.w3.org/2000/svg" xmlns:xlink="http://www.w3.org/1999/xlink" xmlns:svgjs="http://svgjs.com/svgjs" fill="#fdfcfb" x="574" y="4228"><svg xmlns="http://www.w3.org/2000/svg" xmlns:xlink="http://www.w3.org/1999/xlink" width="6" height="10"><path paint-order="stroke fill markers" fill-rule="evenodd" d="M5.988.004c.155.114-1.257 2.3-2.896 5.05C1.446 7.801.19 10.081.017 9.997c-.162-.077.834-2.514 2.498-5.292C4.17 1.925 5.843-.105 5.988.004z"/></svg></svg><svg width="1" height="12" xmlns="http://www.w3.org/2000/svg" xmlns:xlink="http://www.w3.org/1999/xlink" xmlns:svgjs="http://svgjs.com/svgjs" viewBox="0.24 0 0.521 12" fill="#fdfcfb" x="597" y="4233"><svg xmlns="http://www.w3.org/2000/svg" xmlns:xlink="http://www.w3.org/1999/xlink" width="1" height="12" viewBox="0.239 -0.001 0.521 12"><path paint-order="stroke fill markers" fill-rule="evenodd" d="M.5 12C.356 12 .24 9.312.24 6c0-3.315.116-6 .26-6 .143 0 .26 2.685.26 6 0 3.313-.117 6-.26 6z"/></svg></svg><svg width="9" height="8" xmlns="http://www.w3.org/2000/svg" xmlns:xlink="http://www.w3.org/1999/xlink" xmlns:svgjs="http://svgjs.com/svgjs" fill="#fdfcfb" x="614" y="4229"><svg xmlns="http://www.w3.org/2000/svg" xmlns:xlink="http://www.w3.org/1999/xlink" width="9" height="8"><path paint-order="stroke fill markers" fill-rule="evenodd" d="M8.996 7.988c-.095.153-2.445-1.223-4.952-3.457C1.529 2.306-.13.122.008.006.155-.127 2.014 1.821 4.49 4.01c2.465 2.2 4.613 3.811 4.505 3.978z"/></svg></svg><svg width="8" height="8" xmlns="http://www.w3.org/2000/svg" xmlns:xlink="http://www.w3.org/1999/xlink" xmlns:svgjs="http://svgjs.com/svgjs" fill="#fdfcfb" x="628" y="4216"><svg xmlns="http://www.w3.org/2000/svg" xmlns:xlink="http://www.w3.org/1999/xlink" width="8" height="8"><path paint-order="stroke fill markers" fill-rule="evenodd" d="M7.992 7.991c-.141.142-2.044-1.53-4.248-3.736C1.538 2.05-.134.15.008.008c.14-.142 2.043 1.53 4.25 3.736C6.46 5.948 8.132 7.85 7.991 7.99z"/></svg></svg><svg width="7" height="7" xmlns="http://www.w3.org/2000/svg" xmlns:xlink="http://www.w3.org/1999/xlink" xmlns:svgjs="http://svgjs.com/svgjs" fill="#fdfcfb" x="558" y="4174"><svg xmlns="http://www.w3.org/2000/svg" xmlns:xlink="http://www.w3.org/1999/xlink" width="7" height="7" viewBox="0 -0.001 7 7"><path paint-order="stroke fill markers" fill-rule="evenodd" d="M6.99 6.99c-.14.142-1.819-1.308-3.747-3.235C1.316 1.827-.132.15.01.008c.141-.14 1.818 1.308 3.746 3.235C5.683 5.171 7.132 6.848 6.99 6.99z"/></svg></svg><svg width="128" height="168" xmlns="http://www.w3.org/2000/svg" xmlns:xlink="http://www.w3.org/1999/xlink" xmlns:svgjs="http://svgjs.com/svgjs" fill="#ecece8" x="569" y="4422"><svg xmlns="http://www.w3.org/2000/svg" xmlns:xlink="http://www.w3.org/1999/xlink" width="128" height="168"><path paint-order="stroke fill markers" fill-rule="evenodd" d="M28.384 164.59C4.563 147.923-.842 116.984.1 89.174c.157-4.644-.35-9.539 1.852-13.612 2.207-4.072 7.35-6.856 11.5-4.9 3.443 1.623 4.942 5.633 6.869 8.95 2.56 4.413 6.378 8.065 10.87 10.4 2.952 1.533 6.604 2.47 9.517.862 3.999-2.21 4.47-7.741 4.44-12.36-.055-8.606-.108-17.21-.161-25.816-.028-4.617-.042-9.33 1.391-13.713 1.435-4.383 4.602-8.453 8.988-9.684 4.387-1.228 9.808 1.303 10.735 5.822.385 1.88.002 3.832.13 5.748.129 1.918 1.02 4.04 2.838 4.573 1.84.541 3.683-.767 5.062-2.12 4.758-4.66 7.986-10.667 11.004-16.639 3.018-5.973 5.947-12.087 10.265-17.171 4.316-5.086 10.289-9.116 16.89-9.49 6.604-.373 13.636 3.707 15.305 10.199 1.673 6.51-2.12 13.114-6.244 18.382A102.961 102.961 0 0 1 99.925 49.06c-1.452 1.032-3.029 2.149-3.584 3.86-1 3.076 1.912 6.135 4.946 7.146 3.435 1.145 7.164.789 10.76 1.213 3.593.423 7.486 2.012 8.847 5.414 1.89 4.719-2.052 9.666-5.93 12.906a88.102 88.102 0 0 1-26.088 15.082c-3.39 1.243-6.96 2.336-9.694 4.721-2.735 2.387 1.507 10.833 3.16 14.085 1.653 3.256 0 0 3.552-.66 3.55-.66 6.73-2.592 10.117-3.87 6.335-2.397 14.515-1.96 18.573 3.524 2.668 3.606 2.902 8.625 1.553 12.923-1.347 4.296-4.083 7.998-6.988 11.411-10.154 11.93-23.152 21.536-37.849 26.64-14.696 5.104-28.312 6.486-42.916 1.136z"/></svg></svg><svg width="93" height="182" xmlns="http://www.w3.org/2000/svg" xmlns:xlink="http://www.w3.org/1999/xlink" xmlns:svgjs="http://svgjs.com/svgjs" fill="#dfdfda" x="597" y="4425"><svg xmlns="http://www.w3.org/2000/svg" xmlns:xlink="http://www.w3.org/1999/xlink" width="93" height="182"><path paint-order="stroke fill markers" fill-rule="evenodd" d="M0 181.94c1.007-11.055 3.42-24.11 7.539-38.183 4.09-14.083 9.85-29.148 16.411-44.697l4.902-11.493c1.616-3.767 3.221-7.505 5.014-11.064 3.556-7.135 7.517-13.72 11.472-19.853 3.954-6.139 7.927-11.818 11.682-17.101 3.768-5.277 7.372-10.13 10.844-14.412 6.922-8.595 13.309-14.85 17.867-18.963a153.293 153.293 0 0 1 5.34-4.64c.601-.488 1.07-.872 1.425-1.161.325-.256.494-.385.503-.373.01.01-.142.162-.448.44-.34.306-.793.712-1.37 1.227a243.872 243.872 0 0 0-5.229 4.756 173.696 173.696 0 0 0-17.624 19.1c-3.432 4.293-7 9.154-10.737 14.444-3.727 5.298-7.674 10.985-11.6 17.115-3.926 6.132-7.858 12.703-11.384 19.802-1.778 3.543-3.364 7.248-4.982 11.028-1.61 3.775-3.242 7.61-4.896 11.488-6.555 15.537-12.322 30.555-16.443 44.584C4.142 158 1.676 170.99.596 181.999L0 181.94"/></svg></svg><svg width="7" height="51" xmlns="http://www.w3.org/2000/svg" xmlns:xlink="http://www.w3.org/1999/xlink" xmlns:svgjs="http://svgjs.com/svgjs" fill="#dfdfda" x="625" y="4451"><svg xmlns="http://www.w3.org/2000/svg" xmlns:xlink="http://www.w3.org/1999/xlink" width="7" height="51"><path paint-order="stroke fill markers" fill-rule="evenodd" d="M6.974 51c-.06.01-.221-.694-.466-1.978-.25-1.282-.548-3.146-.884-5.454-.674-4.616-1.38-11.02-2.132-18.084-.752-7.069-1.55-13.444-2.295-18.037C.831 5.149.517 3.293.282 2.012.055.728-.043.013.017 0c.059-.012.268.677.598 1.942.338 1.262.747 3.11 1.191 5.4.905 4.583 1.804 10.976 2.556 18.049l1.877 18.1c.24 2.178.443 4.012.608 5.483.138 1.294.188 2.016.127 2.025z"/></svg></svg><svg width="59" height="11" xmlns="http://www.w3.org/2000/svg" xmlns:xlink="http://www.w3.org/1999/xlink" xmlns:svgjs="http://svgjs.com/svgjs" fill="#dfdfda" x="632" y="4491"><svg xmlns="http://www.w3.org/2000/svg" xmlns:xlink="http://www.w3.org/1999/xlink" width="59" height="11"><path paint-order="stroke fill markers" fill-rule="evenodd" d="M59 .059c.003.058-.837.153-2.352.28-1.515.134-3.706.315-6.406.626-5.404.579-12.84 1.635-20.994 3.16-8.152 1.537-15.47 3.24-20.727 4.624-2.636.672-4.752 1.274-6.218 1.682-1.464.413-2.283.615-2.303.56-.018-.056.768-.363 2.204-.876A113.62 113.62 0 0 1 8.363 8.17c5.232-1.534 12.554-3.336 20.73-4.88C37.272 1.764 44.75.795 50.186.37A97.845 97.845 0 0 1 56.63.01C58.156-.011 58.999 0 59 .06z"/></svg></svg><svg width="30" height="76" xmlns="http://www.w3.org/2000/svg" xmlns:xlink="http://www.w3.org/1999/xlink" xmlns:svgjs="http://svgjs.com/svgjs" viewBox="0 0 30 75.999" fill="#dfdfda" x="576" y="4492"><svg xmlns="http://www.w3.org/2000/svg" xmlns:xlink="http://www.w3.org/1999/xlink" width="30" height="76" viewBox="0 0 30 75.999"><path paint-order="stroke fill markers" fill-rule="evenodd" d="M29.995 75.999c-.027.013-.165-.237-.408-.726l-1.018-2.153c-.877-1.872-2.074-4.618-3.508-8.026-2.875-6.817-6.548-16.357-10.458-26.94-3.913-10.587-7.493-20.15-10.22-27.016-1.336-3.34-2.436-6.084-3.253-8.125L.257.797C.065.287-.022.013.005 0 .032-.01.17.238.414.727c.275.583.611 1.292 1.02 2.152.875 1.873 2.071 4.615 3.507 8.024 2.874 6.817 6.546 16.36 10.458 26.947 3.913 10.585 7.492 20.146 10.218 27.015 1.34 3.334 2.438 6.082 3.254 8.12l.873 2.218c.191.51.279.784.25.796z"/></svg></svg><svg width="79" height="25" xmlns="http://www.w3.org/2000/svg" xmlns:xlink="http://www.w3.org/1999/xlink" xmlns:svgjs="http://svgjs.com/svgjs" fill="#dfdfda" x="606" y="4543"><svg xmlns="http://www.w3.org/2000/svg" xmlns:xlink="http://www.w3.org/1999/xlink" width="79" height="25" viewBox="0 -0.001 79 25"><path paint-order="stroke fill markers" fill-rule="evenodd" d="M79 .007c.008.028-.264.136-.785.317l-2.294.754c-2.118.674-4.98 1.583-8.46 2.691-7.142 2.274-16.97 5.523-27.826 9.129-10.858 3.61-20.728 6.775-27.92 8.902-3.596 1.066-6.514 1.9-8.542 2.435l-2.34.603c-.538.129-.825.184-.833.153-.006-.026.264-.135.784-.318.617-.201 1.375-.451 2.295-.753l8.458-2.69c7.142-2.272 16.972-5.525 27.832-9.133 10.854-3.607 20.72-6.77 27.913-8.9C70.88 2.131 73.797 1.3 75.827.765c.939-.243 1.711-.443 2.34-.603.537-.132.823-.184.833-.155z"/></svg></svg><svg width="490" height="365" xmlns="http://www.w3.org/2000/svg" xmlns:xlink="http://www.w3.org/1999/xlink" xmlns:svgjs="http://svgjs.com/svgjs" fill="#dfdfda" x="133" y="4275"><svg xmlns="http://www.w3.org/2000/svg" xmlns:xlink="http://www.w3.org/1999/xlink" width="490" height="365" viewBox="0 -0.001 490 365"><path paint-order="stroke fill markers" fill-rule="evenodd" d="M5.916 6.985S-18.755 273.807 32.664 359.58L490 365S414.24 133.703 420.806 0L5.916 6.984z"/></svg></svg><svg width="507" height="334" xmlns="http://www.w3.org/2000/svg" xmlns:xlink="http://www.w3.org/1999/xlink" xmlns:svgjs="http://svgjs.com/svgjs" fill="#ecece8" x="135" y="4282"><svg xmlns="http://www.w3.org/2000/svg" xmlns:xlink="http://www.w3.org/1999/xlink" width="507" height="334" viewBox="0 -0.001 507 334"><path paint-order="stroke fill markers" fill-rule="evenodd" d="M4.435-.001s-29.015 275.191 61.384 334h441.18s-78.3-134.334-84.473-334H4.435z"/></svg></svg><svg width="429" height="69" xmlns="http://www.w3.org/2000/svg" xmlns:xlink="http://www.w3.org/1999/xlink" xmlns:svgjs="http://svgjs.com/svgjs" fill="#e13856" x="137" y="4218"><svg xmlns="http://www.w3.org/2000/svg" xmlns:xlink="http://www.w3.org/1999/xlink" width="429" height="69" viewBox="0 -0.001 429 69"><path paint-order="stroke fill markers" fill-rule="evenodd" d="M0 68.999h429v-69H0v69z"/></svg></svg><svg width="44" height="46" xmlns="http://www.w3.org/2000/svg" xmlns:xlink="http://www.w3.org/1999/xlink" xmlns:svgjs="http://svgjs.com/svgjs" fill="#dfdfda" x="173" y="4201"><svg xmlns="http://www.w3.org/2000/svg" xmlns:xlink="http://www.w3.org/1999/xlink" width="44" height="46" viewBox="0 -0.001 44 46"><path paint-order="stroke fill markers" fill-rule="evenodd" d="M3.87 18.15l-.391-.11.392.113v-.003l-.392-.11.392.113c.018-.086 1.1-3.773 3.903-7.289 1.4-1.762 3.216-3.479 5.533-4.755 2.321-1.275 5.144-2.127 8.694-2.13 3.084 0 5.712.62 7.948 1.665 3.35 1.57 5.855 4.116 7.555 7.162 1.696 3.04 2.556 6.578 2.553 9.971.001 4.676-1.409 9.336-4.326 12.856-2.927 3.514-7.329 6.017-13.838 6.39a1.984 1.984 0 0 0-1.861 2.096 1.98 1.98 0 0 0 2.077 1.878c7.434-.393 13.046-3.438 16.648-7.814C42.367 33.812 44 28.24 44 22.777c-.004-5.41-1.788-11.04-5.462-15.41a20.248 20.248 0 0 0-6.93-5.332C28.835.735 25.61-.002 22 0c-4.255-.002-7.83 1.071-10.718 2.693-4.34 2.437-7.117 6.03-8.821 8.979-1.706 2.956-2.357 5.3-2.39 5.413a1.992 1.992 0 0 0 1.371 2.45 1.97 1.97 0 0 0 2.428-1.384z"/></svg></svg><svg width="21" height="9" xmlns="http://www.w3.org/2000/svg" xmlns:xlink="http://www.w3.org/1999/xlink" xmlns:svgjs="http://svgjs.com/svgjs" viewBox="0.001 0 20.998 9" fill="#d0021b" x="169" y="4218"><svg xmlns="http://www.w3.org/2000/svg" xmlns:xlink="http://www.w3.org/1999/xlink" width="21" height="9" viewBox="0 -0.001 21 9.001"><path paint-order="stroke fill markers" fill-rule="evenodd" d="M0 9h21V0H0v9z"/></svg></svg><svg width="44" height="46" xmlns="http://www.w3.org/2000/svg" xmlns:xlink="http://www.w3.org/1999/xlink" xmlns:svgjs="http://svgjs.com/svgjs" fill="#dfdfda" x="255" y="4201"><svg xmlns="http://www.w3.org/2000/svg" xmlns:xlink="http://www.w3.org/1999/xlink" width="44" height="46" viewBox="0 -0.001 44 46"><path paint-order="stroke fill markers" fill-rule="evenodd" d="M3.87 18.15l-.391-.11.392.113v-.003l-.392-.11.392.113c.018-.086 1.1-3.773 3.903-7.289 1.4-1.762 3.216-3.479 5.533-4.755 2.321-1.275 5.144-2.127 8.692-2.13 3.085 0 5.714.62 7.95 1.665 3.35 1.57 5.855 4.116 7.555 7.162 1.696 3.04 2.556 6.578 2.553 9.971.001 4.676-1.409 9.336-4.326 12.856-2.929 3.514-7.329 6.017-13.838 6.39a1.984 1.984 0 0 0-1.861 2.096 1.978 1.978 0 0 0 2.075 1.878c7.435-.393 13.048-3.438 16.65-7.814 3.61-4.371 5.242-9.942 5.243-15.406-.004-5.41-1.788-11.04-5.462-15.41a20.262 20.262 0 0 0-6.93-5.332C28.833.735 25.61-.002 21.999 0c-4.252-.002-7.83 1.071-10.717 2.693-4.34 2.437-7.116 6.03-8.82 8.979-1.706 2.956-2.357 5.3-2.39 5.413a1.992 1.992 0 0 0 1.371 2.45 1.97 1.97 0 0 0 2.428-1.384z"/></svg></svg><svg width="21" height="9" xmlns="http://www.w3.org/2000/svg" xmlns:xlink="http://www.w3.org/1999/xlink" xmlns:svgjs="http://svgjs.com/svgjs" viewBox="0.001 0 20.998 9" fill="#d0021b" x="251" y="4218"><svg xmlns="http://www.w3.org/2000/svg" xmlns:xlink="http://www.w3.org/1999/xlink" width="21" height="9" viewBox="0 -0.001 21 9.001"><path paint-order="stroke fill markers" fill-rule="evenodd" d="M0 9h21V0H0v9z"/></svg></svg><svg width="44" height="46" xmlns="http://www.w3.org/2000/svg" xmlns:xlink="http://www.w3.org/1999/xlink" xmlns:svgjs="http://svgjs.com/svgjs" fill="#dfdfda" x="336" y="4201"><svg xmlns="http://www.w3.org/2000/svg" xmlns:xlink="http://www.w3.org/1999/xlink" width="44" height="46" viewBox="0 -0.001 44 46"><path paint-order="stroke fill markers" fill-rule="evenodd" d="M3.87 18.15l-.39-.11.39.113v-.003l-.39-.11.39.113c.018-.086 1.1-3.773 3.903-7.289 1.4-1.762 3.216-3.479 5.533-4.755 2.32-1.275 5.145-2.127 8.693-2.13 3.085 0 5.712.62 7.95 1.665 3.349 1.57 5.854 4.116 7.555 7.162 1.695 3.04 2.554 6.578 2.553 9.971.001 4.676-1.41 9.336-4.328 12.856-2.926 3.514-7.328 6.017-13.837 6.39a1.984 1.984 0 0 0-1.861 2.096 1.979 1.979 0 0 0 2.076 1.878c7.435-.393 13.048-3.438 16.65-7.814 3.61-4.371 5.242-9.942 5.243-15.406-.005-5.41-1.789-11.04-5.463-15.41a20.249 20.249 0 0 0-6.93-5.332C28.833.735 25.61-.002 21.999 0c-4.254-.002-7.83 1.071-10.717 2.693-4.34 2.437-7.117 6.03-8.821 8.979C.756 14.627.104 16.97.073 17.084a1.991 1.991 0 0 0 1.37 2.45 1.97 1.97 0 0 0 2.428-1.384z"/></svg></svg><svg width="21" height="9" xmlns="http://www.w3.org/2000/svg" xmlns:xlink="http://www.w3.org/1999/xlink" xmlns:svgjs="http://svgjs.com/svgjs" viewBox="0.001 0 20.998 9" fill="#d0021b" x="332" y="4218"><svg xmlns="http://www.w3.org/2000/svg" xmlns:xlink="http://www.w3.org/1999/xlink" width="21" height="9" viewBox="0 -0.001 21 9.001"><path paint-order="stroke fill markers" fill-rule="evenodd" d="M0 9h21V0H0v9z"/></svg></svg><svg width="44" height="46" xmlns="http://www.w3.org/2000/svg" xmlns:xlink="http://www.w3.org/1999/xlink" xmlns:svgjs="http://svgjs.com/svgjs" fill="#dfdfda" x="418" y="4201"><svg xmlns="http://www.w3.org/2000/svg" xmlns:xlink="http://www.w3.org/1999/xlink" width="44" height="46" viewBox="0 -0.001 44 46"><path paint-order="stroke fill markers" fill-rule="evenodd" d="M3.87 18.15l-.391-.11.392.113v-.003l-.392-.11.392.113c.018-.086 1.1-3.773 3.903-7.289 1.4-1.762 3.214-3.479 5.533-4.755 2.32-1.275 5.143-2.127 8.692-2.13 3.084 0 5.713.62 7.95 1.665 3.35 1.57 5.854 4.116 7.554 7.162 1.696 3.04 2.556 6.578 2.554 9.971.002 4.676-1.41 9.336-4.327 12.856-2.927 3.514-7.328 6.017-13.838 6.39a1.984 1.984 0 0 0-1.86 2.096 1.978 1.978 0 0 0 2.075 1.878c7.435-.393 13.048-3.438 16.65-7.814 3.61-4.371 5.242-9.942 5.243-15.406-.005-5.41-1.789-11.04-5.463-15.41a20.262 20.262 0 0 0-6.93-5.332C28.833.735 25.61-.002 21.999 0c-4.253-.002-7.83 1.071-10.718 2.693-4.339 2.437-7.115 6.03-8.82 8.979C.755 14.627.104 16.97.071 17.084a1.992 1.992 0 0 0 1.371 2.45 1.97 1.97 0 0 0 2.428-1.384z"/></svg></svg><svg width="21" height="9" xmlns="http://www.w3.org/2000/svg" xmlns:xlink="http://www.w3.org/1999/xlink" xmlns:svgjs="http://svgjs.com/svgjs" viewBox="0.001 0 20.998 9" fill="#d0021b" x="414" y="4218"><svg xmlns="http://www.w3.org/2000/svg" xmlns:xlink="http://www.w3.org/1999/xlink" width="21" height="9" viewBox="0 -0.001 21 9.001"><path paint-order="stroke fill markers" fill-rule="evenodd" d="M0 9h21V0H0v9z"/></svg></svg><svg width="44" height="46" xmlns="http://www.w3.org/2000/svg" xmlns:xlink="http://www.w3.org/1999/xlink" xmlns:svgjs="http://svgjs.com/svgjs" fill="#dfdfda" x="500" y="4201"><svg xmlns="http://www.w3.org/2000/svg" xmlns:xlink="http://www.w3.org/1999/xlink" width="44" height="46" viewBox="0 -0.001 44 46"><path paint-order="stroke fill markers" fill-rule="evenodd" d="M3.87 18.15l-.392-.11.393.113v-.003l-.393-.11.393.113c.018-.086 1.1-3.773 3.903-7.289 1.4-1.762 3.215-3.479 5.533-4.755C15.628 4.834 18.451 3.982 22 3.98c3.085 0 5.714.62 7.95 1.665 3.35 1.57 5.855 4.116 7.555 7.162 1.695 3.04 2.554 6.578 2.553 9.971.001 4.676-1.41 9.336-4.328 12.856-2.927 3.514-7.327 6.017-13.836 6.39a1.983 1.983 0 0 0-1.861 2.096 1.978 1.978 0 0 0 2.075 1.878c7.435-.393 13.048-3.438 16.649-7.814 3.612-4.371 5.243-9.942 5.244-15.406-.005-5.41-1.789-11.04-5.463-15.41a20.245 20.245 0 0 0-6.929-5.332C28.834.735 25.611-.002 21.999 0c-4.252-.002-7.83 1.071-10.717 2.693-4.34 2.437-7.116 6.03-8.821 8.979C.756 14.627.105 16.97.072 17.084a1.992 1.992 0 0 0 1.371 2.45 1.97 1.97 0 0 0 2.428-1.384z"/></svg></svg><svg width="21" height="9" xmlns="http://www.w3.org/2000/svg" xmlns:xlink="http://www.w3.org/1999/xlink" xmlns:svgjs="http://svgjs.com/svgjs" viewBox="0.001 0 20.998 9" fill="#d0021b" x="495" y="4218"><svg xmlns="http://www.w3.org/2000/svg" xmlns:xlink="http://www.w3.org/1999/xlink" width="21" height="9" viewBox="0 -0.001 21 9.001"><path paint-order="stroke fill markers" fill-rule="evenodd" d="M0 9h21V0H0v9z"/></svg></svg><svg width="503" height="307" xmlns="http://www.w3.org/2000/svg" xmlns:xlink="http://www.w3.org/1999/xlink" xmlns:svgjs="http://svgjs.com/svgjs" fill="#f8f7f5" x="137" y="4289"><svg xmlns="http://www.w3.org/2000/svg" xmlns:xlink="http://www.w3.org/1999/xlink" width="503" height="307"><path paint-order="stroke fill markers" fill-rule="evenodd" d="M.036 0s-4.754 306.86 94.658 306.86L503 307s-58.356-59.574-75.647-307H.036z"/></svg></svg><svg width="407" height="239" xmlns="http://www.w3.org/2000/svg" xmlns:xlink="http://www.w3.org/1999/xlink" xmlns:svgjs="http://svgjs.com/svgjs" fill="#1a282b" x="175" y="4319"><svg xmlns="http://www.w3.org/2000/svg" xmlns:xlink="http://www.w3.org/1999/xlink" width="407" height="239"><path paint-order="stroke fill markers" fill-rule="evenodd" d="M407 238.689c-.093-.265-.533-1.498-1.496-4.2-.957-2.774-2.463-6.807-4.24-12.207-3.66-10.758-8.758-26.668-14.614-47.215C374.9 134.003 360.717 74.157 349.684.384l.275.237L3.694.687H.396l.34-.392c6.235 44.4 12.638 87.672 22.998 128.205 5.17 20.25 11.34 39.787 18.782 58.248 7.424 18.461 16.136 35.827 25.979 51.777l-.265-.148 338.77.312-338.77.31h-.172l-.091-.147c-9.872-15.977-18.609-33.372-26.054-51.862-7.461-18.489-13.645-38.052-18.827-58.325C12.703 88.087 6.29 44.794.056.39L0 0h3.694c129.737.025 249.73.047 346.265.064h.24l.035.24c10.967 73.754 25.066 133.6 36.722 174.676 5.807 20.554 10.856 36.479 14.465 47.248l5.579 16.46z"/></svg></svg><svg width="348" height="1" xmlns="http://www.w3.org/2000/svg" xmlns:xlink="http://www.w3.org/1999/xlink" xmlns:svgjs="http://svgjs.com/svgjs" viewBox="0 0.239 348 0.522" fill="#1a282b" x="197" y="4438"><svg xmlns="http://www.w3.org/2000/svg" xmlns:xlink="http://www.w3.org/1999/xlink" width="348" height="1" viewBox="0 0.238 348 0.522"><path paint-order="stroke fill markers" fill-rule="evenodd" d="M348 .5c0 .143-77.908.26-173.99.26C77.891.76 0 .643 0 .5 0 .354 77.892.237 174.01.237 270.091.238 348 .355 348 .5z"/></svg></svg><svg width="348" height="1" xmlns="http://www.w3.org/2000/svg" xmlns:xlink="http://www.w3.org/1999/xlink" xmlns:svgjs="http://svgjs.com/svgjs" viewBox="0 0.24 348 0.52" fill="#1a282b" x="215" y="4502"><svg xmlns="http://www.w3.org/2000/svg" xmlns:xlink="http://www.w3.org/1999/xlink" width="348" height="1" viewBox="0 0.239 348 0.52"><path paint-order="stroke fill markers" fill-rule="evenodd" d="M348 .5c0 .142-77.909.26-173.991.26C77.89.76-.001.642-.001.5 0 .356 77.892.24 174.01.24 270.09.24 348 .355 348 .5z"/></svg></svg><svg width="348" height="1" xmlns="http://www.w3.org/2000/svg" xmlns:xlink="http://www.w3.org/1999/xlink" xmlns:svgjs="http://svgjs.com/svgjs" viewBox="0 0.24 348 0.52" fill="#1a282b" x="185" y="4377"><svg xmlns="http://www.w3.org/2000/svg" xmlns:xlink="http://www.w3.org/1999/xlink" width="348" height="1" viewBox="0 0.239 348 0.52"><path paint-order="stroke fill markers" fill-rule="evenodd" d="M348 .5c0 .143-77.909.26-173.992.26C77.893.76 0 .643 0 .5 0 .356 77.893.239 174.008.239 270.09.239 348 .356 348 .499z"/></svg></svg><svg width="57" height="238" xmlns="http://www.w3.org/2000/svg" xmlns:xlink="http://www.w3.org/1999/xlink" xmlns:svgjs="http://svgjs.com/svgjs" fill="#1a282b" x="243" y="4320"><svg xmlns="http://www.w3.org/2000/svg" xmlns:xlink="http://www.w3.org/1999/xlink" width="57" height="238" viewBox="0 -0.001 57 238.001"><path paint-order="stroke fill markers" fill-rule="evenodd" d="M57 238s-.085-.199-.217-.596c-.14-.424-.33-1.01-.575-1.765l-2.142-6.809c-1.859-5.915-4.455-14.5-7.593-25.132-6.251-21.266-14.524-50.76-22.512-83.624a1666.26 1666.26 0 0 1-10.594-46.492c-2.989-14.345-5.574-27.288-7.519-38.197-1.02-5.446-1.859-10.388-2.595-14.727a546.964 546.964 0 0 1-1.832-11.14C.951 6.48.587 4.11.333 2.467.22 1.682.133 1.072.067.629.012.215 0 0 0 0s.058.208.138.62L.47 2.443l1.214 7.03a722.73 722.73 0 0 0 1.949 11.118c.772 4.333 1.644 9.267 2.694 14.705 2.006 10.894 4.64 23.821 7.662 38.155a1821.417 1821.417 0 0 0 10.642 46.46c7.985 32.852 16.181 62.356 22.31 83.653 3.078 10.644 5.602 19.25 7.382 25.188.869 2.948 1.548 5.25 2.017 6.846l.508 1.785c.111.403.15.616.15.616z"/></svg></svg><svg width="57" height="238" xmlns="http://www.w3.org/2000/svg" xmlns:xlink="http://www.w3.org/1999/xlink" xmlns:svgjs="http://svgjs.com/svgjs" fill="#1a282b" x="310" y="4320"><svg xmlns="http://www.w3.org/2000/svg" xmlns:xlink="http://www.w3.org/1999/xlink" width="57" height="238" viewBox="0 -0.001 57 238.001"><path paint-order="stroke fill markers" fill-rule="evenodd" d="M57 238s-.085-.2-.215-.597l-.56-1.769-2.094-6.825c-1.816-5.927-4.363-14.527-7.467-25.166-6.156-21.293-14.471-50.772-22.568-83.609C15.94 87.2 9.632 57.22 5.706 35.407c-1.002-5.45-1.87-10.386-2.57-14.733-.724-4.34-1.346-8.079-1.785-11.147L.315 2.468.062.629C.01.215 0 0 0 0S.056.21.133.62c.076.44.182 1.048.32 1.827.27 1.64.662 4.006 1.164 7.038.478 3.06 1.14 6.792 1.9 11.127.735 4.338 1.638 9.265 2.67 14.707 4.045 21.78 10.428 51.728 18.58 84.55 8.094 32.826 16.331 62.316 22.366 83.64l7.255 25.225c.849 2.954 1.512 5.26 1.97 6.86l.495 1.79c.107.403.147.616.147.616z"/></svg></svg><svg width="57" height="238" xmlns="http://www.w3.org/2000/svg" xmlns:xlink="http://www.w3.org/1999/xlink" xmlns:svgjs="http://svgjs.com/svgjs" fill="#1a282b" x="381" y="4320"><svg xmlns="http://www.w3.org/2000/svg" xmlns:xlink="http://www.w3.org/1999/xlink" width="57" height="238" viewBox="0 -0.001 57 238.001"><path paint-order="stroke fill markers" fill-rule="evenodd" d="M57 238s-.086-.199-.22-.595l-.582-1.764c-.505-1.586-1.236-3.872-2.17-6.804-1.887-5.909-4.526-14.486-7.745-25.098-6.373-21.239-14.971-50.656-23.195-83.48C14.8 87.441 8.619 57.404 5.006 35.527 4.09 30.061 3.28 25.112 2.674 20.75 2.038 16.392 1.473 12.64 1.12 9.562L.254 2.476.046.63C.004.215 0 0 0 0s.05.21.117.623l.275 1.835.993 7.068c.396 3.073.999 6.817 1.67 11.166.641 4.355 1.486 9.295 2.433 14.754 3.734 21.846 9.986 51.841 18.27 84.648 8.218 32.808 16.74 62.237 22.993 83.508 3.174 10.599 5.745 19.187 7.534 25.157l2.047 6.841.514 1.785c.113.402.154.615.154.615z"/></svg></svg><svg width="57" height="238" xmlns="http://www.w3.org/2000/svg" xmlns:xlink="http://www.w3.org/1999/xlink" xmlns:svgjs="http://svgjs.com/svgjs" fill="#1a282b" x="451" y="4320"><svg xmlns="http://www.w3.org/2000/svg" xmlns:xlink="http://www.w3.org/1999/xlink" width="57" height="238" viewBox="0 -0.001 57 238.001"><path paint-order="stroke fill markers" fill-rule="evenodd" d="M57 238s-.088-.199-.227-.593l-.598-1.76c-.52-1.582-1.272-3.862-2.236-6.787-1.944-5.894-4.663-14.452-7.99-25.038-6.581-21.19-15.46-50.547-23.875-83.348-4.235-16.397-7.9-32.114-10.875-46.482-1.555-7.17-2.788-14.032-4.024-20.438L5.576 44.25c-.517-2.985-1-5.85-1.384-8.598C.838 13.713 0 0 0 0s.045.213.098.628L.32 2.47 1.1 9.57c.29 3.085.844 6.84 1.404 11.207.527 4.372 1.329 9.324 2.17 14.803.398 2.743.898 5.604 1.427 8.583.527 2.98 1.072 6.08 1.638 9.289 1.26 6.397 2.512 13.25 4.083 20.413 3.007 14.35 6.688 30.05 10.921 46.44 8.411 32.783 17.212 62.152 23.673 83.375 3.277 10.576 5.933 19.143 7.78 25.1l2.112 6.826.533 1.782c.116.4.159.613.159.613z"/></svg></svg><svg width="83" height="61" xmlns="http://www.w3.org/2000/svg" xmlns:xlink="http://www.w3.org/1999/xlink" xmlns:svgjs="http://svgjs.com/svgjs" viewBox="0 0 83 60.999" fill="#f8e71c" x="252" y="4329"><svg xmlns="http://www.w3.org/2000/svg" xmlns:xlink="http://www.w3.org/1999/xlink" width="83" height="61" viewBox="0 0 83 60.999"><path paint-order="stroke fill markers" fill-rule="evenodd" d="M1.08 14.005s2.968 28.933 14.43 46.994H83S66.59 31.738 64.609 11.405L63.125 0H0l1.08 14.005z"/></svg></svg><svg width="43" height="1" xmlns="http://www.w3.org/2000/svg" xmlns:xlink="http://www.w3.org/1999/xlink" xmlns:svgjs="http://svgjs.com/svgjs" viewBox="0 0.24 43 0.52" fill="#e13856" x="267" y="4348"><svg xmlns="http://www.w3.org/2000/svg" xmlns:xlink="http://www.w3.org/1999/xlink" width="43" height="1" viewBox="0 0.239 43 0.52"><path paint-order="stroke fill markers" fill-rule="evenodd" d="M43 .5c0 .144-9.627.26-21.5.26C9.625.76 0 .644 0 .5 0 .355 9.625.24 21.5.24 33.373.24 43 .355 43 .5z"/></svg></svg><svg width="43" height="1" xmlns="http://www.w3.org/2000/svg" xmlns:xlink="http://www.w3.org/1999/xlink" xmlns:svgjs="http://svgjs.com/svgjs" viewBox="0 0.24 43 0.52" fill="#e13856" x="269" y="4355"><svg xmlns="http://www.w3.org/2000/svg" xmlns:xlink="http://www.w3.org/1999/xlink" width="43" height="1" viewBox="0 0.239 43 0.52"><path paint-order="stroke fill markers" fill-rule="evenodd" d="M43 .5c0 .144-9.627.26-21.499.26C9.624.76 0 .644 0 .5 0 .356 9.624.24 21.5.24 33.373.24 43 .355 43 .5z"/></svg></svg><svg width="43" height="1" xmlns="http://www.w3.org/2000/svg" xmlns:xlink="http://www.w3.org/1999/xlink" xmlns:svgjs="http://svgjs.com/svgjs" viewBox="0 0.24 43 0.52" fill="#e13856" x="271" y="4362"><svg xmlns="http://www.w3.org/2000/svg" xmlns:xlink="http://www.w3.org/1999/xlink" width="43" height="1" viewBox="0 0.239 43 0.52"><path paint-order="stroke fill markers" fill-rule="evenodd" d="M43 .5c0 .143-9.627.26-21.5.26C9.626.76 0 .642 0 .5 0 .356 9.625.239 21.5.239c11.873 0 21.5.117 21.5.26z"/></svg></svg><svg width="43" height="1" xmlns="http://www.w3.org/2000/svg" xmlns:xlink="http://www.w3.org/1999/xlink" xmlns:svgjs="http://svgjs.com/svgjs" viewBox="0 0.24 43 0.52" fill="#e13856" x="273" y="4370"><svg xmlns="http://www.w3.org/2000/svg" xmlns:xlink="http://www.w3.org/1999/xlink" width="43" height="1" viewBox="0 0.239 43 0.52"><path paint-order="stroke fill markers" fill-rule="evenodd" d="M43 .499c0 .145-9.627.26-21.5.26C9.626.76 0 .645 0 .5c0-.143 9.625-.26 21.5-.26C33.374.24 43 .356 43 .5z"/></svg></svg><svg width="83" height="61" xmlns="http://www.w3.org/2000/svg" xmlns:xlink="http://www.w3.org/1999/xlink" xmlns:svgjs="http://svgjs.com/svgjs" viewBox="0 0 82.999 61" fill="#e13856" x="484" y="4400"><svg xmlns="http://www.w3.org/2000/svg" xmlns:xlink="http://www.w3.org/1999/xlink" width="83" height="61" viewBox="0 -0.001 83 61.001"><path paint-order="stroke fill markers" fill-rule="evenodd" d="M1.08 14.007S4.046 42.94 15.51 61H83S66.587 31.74 64.608 11.407L63.122 0H0l1.08 14.008z"/></svg></svg><svg width="43" height="1" xmlns="http://www.w3.org/2000/svg" xmlns:xlink="http://www.w3.org/1999/xlink" xmlns:svgjs="http://svgjs.com/svgjs" viewBox="0 0.24 43 0.519" fill="#dfdfda" x="498" y="4418"><svg xmlns="http://www.w3.org/2000/svg" xmlns:xlink="http://www.w3.org/1999/xlink" width="43" height="1" viewBox="0 0.24 43 0.519"><path paint-order="stroke fill markers" fill-rule="evenodd" d="M43 .5c0 .144-9.627.259-21.5.259C9.626.759 0 .644 0 .5 0 .356 9.625.24 21.5.24 33.374.24 43 .356 43 .5z"/></svg></svg><svg width="43" height="1" xmlns="http://www.w3.org/2000/svg" xmlns:xlink="http://www.w3.org/1999/xlink" xmlns:svgjs="http://svgjs.com/svgjs" viewBox="0 0.24 43 0.52" fill="#dfdfda" x="501" y="4425"><svg xmlns="http://www.w3.org/2000/svg" xmlns:xlink="http://www.w3.org/1999/xlink" width="43" height="1" viewBox="0 0.239 43 0.52"><path paint-order="stroke fill markers" fill-rule="evenodd" d="M43 .499c0 .145-9.627.26-21.5.26C9.626.76 0 .645 0 .5c0-.144 9.625-.26 21.5-.26C33.374.24 43 .355 43 .5z"/></svg></svg><svg width="43" height="1" xmlns="http://www.w3.org/2000/svg" xmlns:xlink="http://www.w3.org/1999/xlink" xmlns:svgjs="http://svgjs.com/svgjs" viewBox="0 0.239 43 0.523" fill="#dfdfda" x="503" y="4432"><svg xmlns="http://www.w3.org/2000/svg" xmlns:xlink="http://www.w3.org/1999/xlink" width="43" height="1" viewBox="0 0.238 43 0.523"><path paint-order="stroke fill markers" fill-rule="evenodd" d="M43 .5c0 .142-9.627.26-21.5.26C9.625.76 0 .643 0 .5 0 .355 9.624.238 21.5.238 33.374.238 43 .355 43 .5z"/></svg></svg><svg width="43" height="1" xmlns="http://www.w3.org/2000/svg" xmlns:xlink="http://www.w3.org/1999/xlink" xmlns:svgjs="http://svgjs.com/svgjs" viewBox="0 0.239 43 0.522" fill="#dfdfda" x="505" y="4439"><svg xmlns="http://www.w3.org/2000/svg" xmlns:xlink="http://www.w3.org/1999/xlink" width="43" height="1" viewBox="0 0.239 43 0.522"><path paint-order="stroke fill markers" fill-rule="evenodd" d="M43 .5c0 .143-9.626.26-21.499.26C9.624.76 0 .643 0 .5 0 .355 9.624.239 21.5.239 33.374.239 43 .355 43 .499z"/></svg></svg><svg width="47" height="43" xmlns="http://www.w3.org/2000/svg" xmlns:xlink="http://www.w3.org/1999/xlink" xmlns:svgjs="http://svgjs.com/svgjs" fill="#e13856" x="395" y="4325"><svg xmlns="http://www.w3.org/2000/svg" xmlns:xlink="http://www.w3.org/1999/xlink" width="47" height="43"><path paint-order="stroke fill markers" fill-rule="evenodd" d="M46.961.028c.695.563-7.987 12.093-21.1 24.043C12.784 36.07.522 43.69.021 42.951c-.573-.803 10.65-9.56 23.54-21.388C36.487 9.783 46.21-.612 46.96.028z"/></svg></svg><svg width="66" height="43" xmlns="http://www.w3.org/2000/svg" xmlns:xlink="http://www.w3.org/1999/xlink" xmlns:svgjs="http://svgjs.com/svgjs" viewBox="0 0 66 42.999" fill="#e13856" x="389" y="4326"><svg xmlns="http://www.w3.org/2000/svg" xmlns:xlink="http://www.w3.org/1999/xlink" width="66" height="43" viewBox="0 0 66 42.999"><path paint-order="stroke fill markers" fill-rule="evenodd" d="M65.985 42.954c-.563.786-15.34-8.795-33.534-20.612C14.264 10.5-.483.882.012.052c.474-.796 16.064 7.537 34.32 19.422 18.261 11.861 32.197 22.728 31.653 23.48z"/></svg></svg><svg width="46" height="35" xmlns="http://www.w3.org/2000/svg" xmlns:xlink="http://www.w3.org/1999/xlink" xmlns:svgjs="http://svgjs.com/svgjs" fill="#e13856" x="327" y="4329"><svg xmlns="http://www.w3.org/2000/svg" xmlns:xlink="http://www.w3.org/1999/xlink" width="46" height="35" viewBox="0 -0.001 46 35"><path paint-order="stroke fill markers" fill-rule="evenodd" d="M.024 34.944c-.58-.762 9.236-9.188 21.923-18.822C34.64 6.486 45.396-.707 45.975.055c.581.759-9.234 9.184-21.926 18.82C11.362 28.51.604 35.704.024 34.945z"/></svg></svg><svg width="60" height="38" xmlns="http://www.w3.org/2000/svg" xmlns:xlink="http://www.w3.org/1999/xlink" xmlns:svgjs="http://svgjs.com/svgjs" viewBox="0.001 0 59.999 38" fill="#e13856" x="321" y="4330"><svg xmlns="http://www.w3.org/2000/svg" xmlns:xlink="http://www.w3.org/1999/xlink" width="60" height="38" viewBox="0 -0.001 60 38.001"><path paint-order="stroke fill markers" fill-rule="evenodd" d="M59.98 37.953c-.606.776-13.625-8.284-30.145-18.692C13.336 8.809-.447.935.011.066c.413-.809 15.035 5.77 31.688 16.317 16.67 10.505 28.853 20.86 28.282 21.57z"/></svg></svg><svg width="67" height="62" xmlns="http://www.w3.org/2000/svg" xmlns:xlink="http://www.w3.org/1999/xlink" xmlns:svgjs="http://svgjs.com/svgjs" fill="#de4d59" x="346" y="4443"><svg xmlns="http://www.w3.org/2000/svg" xmlns:xlink="http://www.w3.org/1999/xlink" width="67" height="62" viewBox="0 -0.001 67 62"><path paint-order="stroke fill markers" fill-rule="evenodd" d="M38.203 2.64c-.007-.111.675-.258 2.004-.35 1.325-.052 3.311.004 5.8.57 2.468.582 5.475 1.633 8.524 3.646 3.065 1.955 6.18 4.893 8.565 8.883 2.366 3.98 3.862 9.002 3.903 14.45a31.294 31.294 0 0 1-1.06 8.358c-.77 2.805-1.981 5.6-3.62 8.205-3.293 5.21-8.304 9.664-14.396 12.477-6.061 2.88-13.316 3.828-20.308 2.587C20.61 60.25 14.14 56.982 9.34 52.254 4.481 47.546 1.573 41.389.516 35.372-.585 29.327.138 23.338 2.098 18.254a26.592 26.592 0 0 1 3.849-6.878c1.544-2.014 3.28-3.747 5.128-5.132 3.64-2.868 7.589-4.456 11.093-5.371 3.533-.893 6.703-1 9.232-.768.637.027 1.23.122 1.785.221.555.103 1.076.163 1.549.286.941.266 1.742.45 2.36.698 1.236.5 1.853.814 1.81.925-.096.334-2.7-.767-7.566-.794a28.406 28.406 0 0 0-8.653 1.282c-3.236 1.026-6.84 2.66-10.084 5.413-1.652 1.33-3.177 2.96-4.515 4.817a24.183 24.183 0 0 0-3.31 6.3c-1.661 4.634-2.22 10.086-1.137 15.546 1.052 5.448 3.703 10.883 8.062 15.05 4.313 4.195 10.173 7.142 16.512 8.236 6.34 1.115 12.8.298 18.299-2.26 5.522-2.5 10.103-6.49 13.13-11.126a28.056 28.056 0 0 0 3.378-7.315 28.969 28.969 0 0 0 1.12-7.55c.082-4.955-1.144-9.56-3.168-13.252-2.031-3.69-4.774-6.53-7.536-8.496-2.74-2.024-5.492-3.19-7.783-3.937-4.642-1.429-7.456-1.188-7.45-1.509z"/></svg></svg><svg width="42" height="46" xmlns="http://www.w3.org/2000/svg" xmlns:xlink="http://www.w3.org/1999/xlink" xmlns:svgjs="http://svgjs.com/svgjs" fill="#e13856" x="197" y="4385"><svg xmlns="http://www.w3.org/2000/svg" xmlns:xlink="http://www.w3.org/1999/xlink" width="42" height="46" viewBox="0 -0.001 42 46.001"><path paint-order="stroke fill markers" fill-rule="evenodd" d="M.043 45.973c-.717-.586 7.555-11.877 19.178-24.59C30.646 8.853 41.12-.814 41.965.053c.677.687-8.679 10.982-20.22 23.641C10.19 36.333.786 46.586.043 45.974z"/></svg></svg><svg width="58" height="36" xmlns="http://www.w3.org/2000/svg" xmlns:xlink="http://www.w3.org/1999/xlink" xmlns:svgjs="http://svgjs.com/svgjs" fill="#e13856" x="192" y="4389"><svg xmlns="http://www.w3.org/2000/svg" xmlns:xlink="http://www.w3.org/1999/xlink" width="58" height="36"><path paint-order="stroke fill markers" fill-rule="evenodd" d="M57.986 35.94c-.494.8-13.873-6.582-29.88-16.49C12.096 9.54-.48.859.014.06.508-.743 13.74 6.64 29.753 16.55c16.006 9.907 28.727 18.59 28.233 19.39z"/></svg></svg><svg width="37" height="37" xmlns="http://www.w3.org/2000/svg" xmlns:xlink="http://www.w3.org/1999/xlink" xmlns:svgjs="http://svgjs.com/svgjs" fill="#de4d59" x="360" y="4455"><svg xmlns="http://www.w3.org/2000/svg" xmlns:xlink="http://www.w3.org/1999/xlink" width="37" height="37"><path paint-order="stroke fill markers" fill-rule="evenodd" d="M18.586.979l5.177 7.44a2.276 2.276 0 0 0 1.885.979l9.053-.054c1.89-.01 2.974 2.153 1.832 3.664l-5.464 7.234a2.288 2.288 0 0 0-.346 2.098l2.849 8.608c.594 1.8-1.125 3.5-2.912 2.88l-8.554-2.97a2.28 2.28 0 0 0-2.099.316l-7.294 5.377c-1.522 1.122-3.67.008-3.63-1.886l.175-9.07a2.278 2.278 0 0 0-.95-1.9L.952 18.406c-1.536-1.104-1.141-3.493.667-4.042l8.664-2.635a2.278 2.278 0 0 0 1.51-1.494l2.747-8.642c.573-1.806 2.964-2.168 4.046-.614z"/></svg></svg><svg width="54" height="48" xmlns="http://www.w3.org/2000/svg" xmlns:xlink="http://www.w3.org/1999/xlink" xmlns:svgjs="http://svgjs.com/svgjs" viewBox="0 0 54 47.999" fill="#e13856" x="465" y="4325"><svg xmlns="http://www.w3.org/2000/svg" xmlns:xlink="http://www.w3.org/1999/xlink" width="54" height="48" viewBox="0 0 54 47.999"><path paint-order="stroke fill markers" fill-rule="evenodd" d="M53.975.034c.637.706-10.926 12.009-25.822 25.241C13.252 38.515.661 48.671.025 47.965c-.637-.706 10.923-12.005 25.823-25.244C40.744 9.49 53.338-.67 53.975.034z"/></svg></svg><svg width="70" height="35" xmlns="http://www.w3.org/2000/svg" xmlns:xlink="http://www.w3.org/1999/xlink" xmlns:svgjs="http://svgjs.com/svgjs" fill="#e13856" x="457" y="4331"><svg xmlns="http://www.w3.org/2000/svg" xmlns:xlink="http://www.w3.org/1999/xlink" width="70" height="35"><path paint-order="stroke fill markers" fill-rule="evenodd" d="M69.991 34.933c-.422.837-16.432-6.29-35.756-15.916C14.906 9.387-.415.904.01.067.43-.772 16.437 6.353 35.766 15.984 55.09 25.61 70.414 34.095 69.99 34.933z"/></svg></svg><svg width="98" height="28" xmlns="http://www.w3.org/2000/svg" xmlns:xlink="http://www.w3.org/1999/xlink" xmlns:svgjs="http://svgjs.com/svgjs" viewBox="0.001 0 97.999 28" fill="#f8e71c" x="502" y="4341"><svg xmlns="http://www.w3.org/2000/svg" xmlns:xlink="http://www.w3.org/1999/xlink" width="98" height="28"><path paint-order="stroke fill markers" fill-rule="evenodd" d="M0 0h79.034L98 14.465 81.275 28 5.5 27.914 0 0z"/></svg></svg><svg width="37" height="37" xmlns="http://www.w3.org/2000/svg" xmlns:xlink="http://www.w3.org/1999/xlink" xmlns:svgjs="http://svgjs.com/svgjs" fill="#e13856" x="360" y="4455"><svg xmlns="http://www.w3.org/2000/svg" width="37" height="37" viewBox="0 -0.001 37 37"><path paint-order="stroke fill markers" fill-rule="evenodd" d="M11.371 37c-1.183 0-2.29-.941-2.29-2.287l.001-.048.177-9.068v-.053a2.285 2.285 0 0 0-.951-1.849L.952 18.406A2.25 2.25 0 0 1 0 16.558c0-.945.573-1.876 1.619-2.194l8.664-2.635a2.277 2.277 0 0 0 1.51-1.493l2.748-8.642a2.267 2.267 0 0 1 2.181-1.595c.698 0 1.4.315 1.864.981l5.177 7.44a2.278 2.278 0 0 0 1.874.979h.011l9.054-.055h.014c1.353 0 2.288 1.116 2.284 2.301-.002.465-.146.94-.466 1.363l-5.465 7.235a2.29 2.29 0 0 0-.345 2.097l2.849 8.61c.082.247.119.491.12.728a2.3 2.3 0 0 1-2.274 2.282 2.26 2.26 0 0 1-.759-.132l-8.554-2.97a2.285 2.285 0 0 0-2.098.316l-7.294 5.377c-.42.309-.887.448-1.343.448z"/></svg></svg></svg>