<svg width="58" height="49" xmlns="http://www.w3.org/2000/svg" xmlns:xlink="http://www.w3.org/1999/xlink" xmlns:svgjs="http://svgjs.com/svgjs" viewBox="0 0.5 58 48" fill="#e13856"><svg xmlns="http://www.w3.org/2000/svg" width="58" height="49" viewBox="0 0.999 58 47.999"><path paint-order="stroke fill markers" fill-rule="evenodd" d="M26.586 48.999c-1.647-1.602-3.253-3.146-4.805-4.64-6.284-6.046-11.71-11.268-15.59-16.122C1.968 22.952 0 18.565 0 14.431c0-1.93.354-3.75 1.05-5.41a12.45 12.45 0 0 1 2.895-4.207C6.433 2.437 9.901 1.082 13.712.999h.073c2.652 0 5.097.591 7.265 1.756 2.266 1.216 4.128 3.01 5.536 5.33 2.718-4.487 7.346-7.061 12.694-7.061 3.726 0 7.178 1.272 9.72 3.582a12.396 12.396 0 0 1 3.038 4.225c.749 1.708 1.129 3.6 1.129 5.621 0 1.086-.142 2.213-.42 3.349h-5.042c.42-1.188.633-2.325.633-3.384 0-2.52-.879-4.69-2.541-6.274-1.59-1.513-3.79-2.347-6.2-2.347-.323 0-.655.015-.984.045-6.072.555-10.37 7.92-11.782 10.34-.096.165-.178.306-.248.422-.109-.177-.239-.399-.39-.654-.829-1.408-2.217-3.765-4.175-5.885-2.381-2.578-4.895-4.006-7.472-4.248-.322-.03-.648-.046-.967-.046-2.363 0-4.542.817-6.136 2.3-1.707 1.586-2.61 3.78-2.61 6.344 0 3.168 1.847 6.873 5.813 11.658 3.55 4.284 8.4 8.954 13.534 13.899.786.757 1.599 1.54 2.406 2.32l1.988-1.915.038-.036a621.078 621.078 0 0 0 6.006-5.833l2.345 4.458c-1.735 1.701-3.547 3.445-5.466 5.291l-.004.003c-1.588 1.528-3.23 3.107-4.906 4.74h-.001zM41.395 35.19l-.072-.001a1.692 1.692 0 0 1-1.446-.935l-5.452-10.942-2.39 3.375a1.698 1.698 0 0 1-1.385.713h-4.715a4.857 4.857 0 0 1-4.185 2.4c-2.665 0-4.834-2.153-4.834-4.8S19.085 20.2 21.75 20.2c1.719 0 3.322.92 4.185 2.4h2.954l4.543-6.504a1.696 1.696 0 0 1 2.896.195l5.485 10.649 1.965-3.48a1.7 1.7 0 0 1 1.477-.86H58v4.801H47.093l-4.25 6.979c-.304.5-.858.81-1.448.81z"/></svg></svg>