<svg width="46" height="48" xmlns="http://www.w3.org/2000/svg" xmlns:xlink="http://www.w3.org/1999/xlink" xmlns:svgjs="http://svgjs.com/svgjs" viewBox="0.041 0 45.917 48" fill="#fff"><svg xmlns="http://www.w3.org/2000/svg" width="46" height="48" viewBox="0.001 -0.001 45.791 47.868"><path paint-order="stroke fill markers" fill-rule="evenodd" d="M11.497 47.867c-6.147 0-7.787-13.133-7.787-20.893 0-1.509-.73-3.508-1.503-5.623l-.003-.01C.47 16.589-1.689 10.672 2.107 5.156 4.519 1.638 7.15-.001 10.389-.001c2.064 0 4.123.684 6.114 1.345 2.024.677 4.118 1.378 6.246 1.378 2.124 0 4.093-.645 6.178-1.329l.065-.02C30.948.727 32.97.06 35.055.06c3.222 0 5.918 1.606 8.483 5.056 3.973 5.333 1.83 11.383.107 16.243l-.03.085c-.748 2.1-1.455 4.084-1.455 5.52 0 4.88-.56 20.81-7.775 20.81-5.17 0-6.396-5.426-7.38-9.786-1.138-4.988-1.96-7.073-4.106-7.073-2.488 0-3.541 3.216-4.757 7.759-1.143 4.308-2.439 9.192-6.645 9.192zM10.389 3.934c-1.319 0-2.947.41-5.03 3.447-2.648 3.848-1.026 8.296.544 12.598.9 2.462 1.75 4.788 1.75 6.994 0 4.558.535 9.086 1.468 12.42 1.048 3.75 2.193 4.538 2.376 4.538 1.17 0 2.167-3.755 2.828-6.24l.003-.012c1.208-4.515 2.863-10.698 8.57-10.698 5.639 0 6.974 5.85 7.948 10.122 1.195 5.29 1.956 6.737 3.54 6.737.355 0 1.496-.818 2.491-4.554.852-3.195 1.34-7.687 1.34-12.322 0-2.108.816-4.4 1.68-6.828l.003-.01.028-.076c1.556-4.393 3.166-8.936.445-12.587-2.274-3.055-3.964-3.467-5.318-3.467-1.453 0-3.093.541-4.83 1.114l-.068.022c-2.18.714-4.652 1.524-7.408 1.524-2.771 0-5.275-.837-7.484-1.577l-.005-.002c-1.773-.587-3.448-1.143-4.871-1.143z"/></svg></svg>