<svg width="48" height="28" xmlns="http://www.w3.org/2000/svg" xmlns:xlink="http://www.w3.org/1999/xlink" xmlns:svgjs="http://svgjs.com/svgjs" viewBox="0 0 47.999 28" fill="#e13856"><svg xmlns="http://www.w3.org/2000/svg" width="48" height="28" viewBox="0 -0.001 48 28"><path paint-order="stroke fill markers" fill-rule="evenodd" d="M24.03 28c-3.276 0-6.577-.784-9.813-2.328-2.589-1.236-5.141-2.959-7.587-5.122C2.465 16.87.024 13.14 0 13.101c.097-.14 2.368-3.39 6.338-6.55 2.39-1.903 4.93-3.418 7.551-4.504C17.165.688 20.577 0 24.029 0c3.51 0 6.955.69 10.238 2.048 2.626 1.086 5.156 2.601 7.518 4.504C45.81 9.79 47.978 13.068 48 13.1c-.092.16-2.26 3.849-6.186 7.45-2.357 2.162-4.885 3.885-7.514 5.121-3.287 1.544-6.742 2.327-10.27 2.327zm0-24.001c-4.082 0-8.07 1.13-11.854 3.358-3.224 1.9-5.642 4.218-7.102 5.829 1.549 1.871 4.077 4.573 7.324 6.81C16.256 22.653 20.17 24 24.03 24c4.18 0 8.234-1.341 12.047-3.987 3.194-2.215 5.548-4.889 6.961-6.74-1.43-1.614-3.81-3.939-7.021-5.855-3.801-2.269-7.834-3.42-11.987-3.42zm-.03 18c-4.411 0-8-3.589-8-8 0-4.41 3.589-8 8-8 4.412 0 8 3.59 8 8 0 4.411-3.588 8-8 8zm0-12c-2.206 0-4 1.795-4 4 0 2.207 1.794 4 4 4s4-1.793 4-4c0-2.205-1.794-4-4-4z"/></svg></svg>