<svg width="37" height="49" xmlns="http://www.w3.org/2000/svg" xmlns:xlink="http://www.w3.org/1999/xlink" xmlns:svgjs="http://svgjs.com/svgjs" viewBox="0.125 0 36.75 49" fill="#e13856"><svg xmlns="http://www.w3.org/2000/svg" width="37" height="49" viewBox="1 0.999 36 48"><path paint-order="stroke fill markers" fill-rule="evenodd" d="M19 49a329.4 329.4 0 0 0-4.582-2.831C5.766 40.889 1 37.98 1 30.069V7h.08c3.408 0 6.238-.063 9.029-.85 2.933-.827 5.675-2.415 8.89-5.15 3.217 2.735 5.958 4.323 8.892 5.15 2.794.788 5.657.85 9.109.85v23.07c0 7.911-4.766 10.82-13.419 16.1a329.4 329.4 0 0 0-4.58 2.83H19zm0-42.912c-5.098 3.68-9.284 4.593-14 4.83V30.07c0 2.833.713 4.651 2.545 6.481 1.823 1.821 4.74 3.612 9.155 6.32.731.449 1.487.913 2.3 1.415.807-.498 1.564-.963 2.296-1.412 4.42-2.712 7.338-4.504 9.161-6.325 1.83-1.828 2.543-3.644 2.543-6.48V10.92c-4.717-.239-8.903-1.152-14-4.831zM19 36c-6.065 0-11-4.935-11-11 0-6.067 4.935-11 11-11s11 4.933 11 11c0 6.065-4.935 11-11 11zM13 23v4h4v4h4v-4h4v-4h-4v-4h-4v4h-4z"/></svg></svg>