<svg width="48" height="49" xmlns="http://www.w3.org/2000/svg" xmlns:xlink="http://www.w3.org/1999/xlink" xmlns:svgjs="http://svgjs.com/svgjs" viewBox="0 0.5 48 48" fill="#e13856"><svg xmlns="http://www.w3.org/2000/svg" width="48" height="49" viewBox="0 0.999 48 48"><path paint-order="stroke fill markers" fill-rule="evenodd" d="M24 49c-3.495 0-6.876-1.218-10.05-3.62-1.12.2-2.204.301-3.22.301-1.646 0-3.146-.265-4.457-.787a8.898 8.898 0 0 1-3.38-2.345C.973 40.402 0 37.277 0 33.26c0-3.54.458-7.062 1.361-10.464.93-3.5 2.285-6.697 4.029-9.505l6.678 9.995c-2.348 2.128-4.551 3.371-6.55 3.697a8.018 8.018 0 0 0-.22 1.93c0 1.822 1.063 4.893 3.99 5.884.416.142.772.427 1.002.804 1.67 2.74 3.812 5.074 6.196 6.747C18.96 44.082 21.558 45 24 45c2.41 0 5.144-.988 7.701-2.78 2.48-1.737 4.614-4.089 6.009-6.62a1.874 1.874 0 0 1 1.002-.804c2.927-.99 3.99-4.062 3.99-5.884 0-.472-.036-.92-.112-1.415-1.196-.007-2.404-.404-3.59-1.184-1.076-.706-2.11-1.708-3.076-2.976l6.7-10.027c1.74 2.807 3.091 6.003 4.018 9.496A40.827 40.827 0 0 1 48 33.26c0 4.016-.974 7.14-2.894 9.288a8.902 8.902 0 0 1-3.38 2.346c-1.312.522-2.812.787-4.458.787-1.016 0-2.099-.102-3.22-.301C30.87 47.78 27.49 49 24 49zm0-8.688c-3.938 0-5.543-4.221-5.61-4.4l11.22-.003c-.002.012-.36 1.115-1.249 2.218-.801.997-2.209 2.185-4.36 2.185zm6.078-10.014c-1.29 0-2.338-1.258-2.338-2.804 0-1.548 1.049-2.807 2.338-2.807 1.29 0 2.338 1.26 2.338 2.807 0 1.546-1.049 2.804-2.338 2.804zm-12.156 0c-1.29 0-2.338-1.258-2.338-2.804 0-1.548 1.049-2.807 2.338-2.807 1.289 0 2.338 1.26 2.338 2.807 0 1.546-1.05 2.804-2.338 2.804zM14 18.999L6 7c6.11-3.955 12.166-5.974 18-6h.112c5.92 0 11.939 2.02 17.888 6l-8 12c-4.263-1.384-7.164-1.948-10.012-1.948-2.86 0-5.754.564-9.988 1.948zm5-11.665v3.332h3.334V14h3.332v-3.334H29V7.334h-3.334V4h-3.332v3.334H19z"/></svg></svg>