<svg width="54" height="73" xmlns="http://www.w3.org/2000/svg" xmlns:xlink="http://www.w3.org/1999/xlink" xmlns:svgjs="http://svgjs.com/svgjs" viewBox="0 0.5 54 72.001" fill="#fff"><svg xmlns="http://www.w3.org/2000/svg" width="54" height="73" viewBox="0 0 54 72.001"><path paint-order="stroke fill markers" fill-rule="evenodd" d="M8.999 72l-9-17.509c4.876-4.14 11.464-10.46 15.667-15.03l-.01-.012c-1.727-2.715-3.878-6.093-5.494-9.58-1.793-3.871-2.665-7.306-2.665-10.502 0-3.977 1.236-7.383 4.008-11.043 1.883-2.495 4.238-4.57 6.809-6.002C21.08.78 24.002 0 27 0h.144c2.97.026 5.865.818 8.602 2.357 2.547 1.43 4.88 3.493 6.75 5.967 2.77 3.657 4.004 7.063 4.004 11.043 0 3.196-.871 6.631-2.663 10.501-1.62 3.498-3.773 6.878-5.503 9.594C42.533 44.027 49.122 50.348 54 54.492l-9 17.506c-3.38-2.455-10.145-8.6-17.64-16.792l-.36-.394C19.353 63.212 12.449 69.497 9 72h-.001zm18-26.125l.002.001.11.147C31.77 52.183 43.398 62.892 43.515 63l3.42-7.005C42.026 51.613 34.109 43.772 30.86 39.84c2.448-3.623 4.792-7.152 6.557-10.52 1.97-3.764 2.977-6.9 3.076-9.592.078-3.195-1.42-6.61-4.111-9.367-1.282-1.314-2.784-2.405-4.344-3.157C30.379 6.404 28.712 6 27.084 6h-.168c-1.63 0-3.297.406-4.957 1.205-1.561.752-3.064 1.845-4.346 3.158-2.69 2.759-4.186 6.172-4.107 9.365.098 2.691 1.103 5.828 3.074 9.591 1.764 3.368 4.11 6.898 6.559 10.52-3.252 3.938-11.168 11.776-16.074 16.156L10.485 63c.113-.105 11.936-10.997 16.514-17.124zm0-12.057l-.1-.158c-.327-.503-.736-1.107-1.209-1.805-2.717-4.013-7.264-10.729-7.264-14.852 0-2.168.857-3.77 2.549-4.76 1.412-.826 3.439-1.245 6.025-1.245h.108c2.557.01 4.56.437 5.954 1.267 1.667.991 2.512 2.586 2.512 4.738 0 4.121-4.543 10.831-7.257 14.84-.523.773-.974 1.44-1.316 1.974l-.001.001zm-.02-17.144c-1.09.024-2.176.22-2.979.534.476 2.408 1.894 5.227 3 7.166l.126-.221c1.054-1.87 2.408-4.594 2.874-6.945-.802-.315-1.888-.51-2.98-.534H27h-.02z"/></svg></svg>