<svg width="17" height="17" xmlns="http://www.w3.org/2000/svg" xmlns:xlink="http://www.w3.org/1999/xlink" xmlns:svgjs="http://svgjs.com/svgjs" fill="#fff"><svg xmlns="http://www.w3.org/2000/svg" width="17" height="17" viewBox="0 -0.001 16 16"><path paint-order="stroke fill markers" fill-rule="evenodd" d="M8 16c-2.144 0-2.43-.01-3.298-.05-2.912-.132-4.52-1.742-4.654-4.652C.009 10.448 0 10.164 0 8 0 5.837.009 5.553.048 4.7.18 1.791 1.79.182 4.702.05c.861-.04 1.12-.05 3.298-.05 2.173 0 2.455.01 3.3.05 2.912.131 4.52 1.74 4.651 4.652.04.868.05 1.154.05 3.299s-.01 2.431-.05 3.298c-.13 2.91-1.738 4.519-4.65 4.653C10.43 15.99 10.144 16 8 16zM8 1.443c-2.113 0-2.375.005-3.232.044-2.169.1-3.18 1.11-3.28 3.28-.036.82-.047 1.07-.047 3.233 0 2.163.01 2.41.047 3.231.1 2.169 1.112 3.18 3.28 3.28.841.04 1.093.047 3.232.047 2.115 0 2.371-.008 3.233-.047 2.168-.098 3.18-1.11 3.28-3.28.038-.847.045-1.101.045-3.231 0-2.128-.007-2.383-.045-3.233-.1-2.168-1.112-3.18-3.28-3.278-.842-.039-1.095-.046-3.233-.046zm0 10.664A4.112 4.112 0 0 1 3.891 8 4.113 4.113 0 0 1 8 3.89 4.113 4.113 0 0 1 12.108 8 4.112 4.112 0 0 1 8 12.107zm0-6.774A2.67 2.67 0 0 0 5.333 8 2.67 2.67 0 0 0 8 10.667 2.67 2.67 0 0 0 10.668 8 2.67 2.67 0 0 0 8 5.333zm4.27-.643c-.53 0-.96-.43-.96-.96a.961.961 0 1 1 .96.96z"/></svg></svg>