<svg width="17" height="17" xmlns="http://www.w3.org/2000/svg" xmlns:xlink="http://www.w3.org/1999/xlink" xmlns:svgjs="http://svgjs.com/svgjs" fill="#e13856"><svg xmlns="http://www.w3.org/2000/svg" width="17" height="17" viewBox="0 -0.001 16 16"><path paint-order="stroke fill markers" fill-rule="evenodd" d="M8 16c-2.144 0-2.43-.01-3.299-.049C1.791 15.818.181 14.21.048 11.3.009 10.447 0 10.164 0 7.999c0-2.163.009-2.447.048-3.298C.18 1.79 1.79.182 4.7.049 5.563.008 5.821 0 8 0c2.173 0 2.455.01 3.3.05 2.912.132 4.52 1.74 4.651 4.652.04.868.05 1.154.05 3.298 0 2.146-.01 2.432-.05 3.3-.13 2.909-1.738 4.519-4.65 4.652-.87.04-1.156.048-3.301.048zM8 1.441c-2.113 0-2.375.006-3.232.045-2.169.099-3.18 1.111-3.28 3.28-.036.821-.047 1.07-.047 3.232 0 2.164.01 2.412.047 3.233.1 2.168 1.112 3.18 3.28 3.28.84.038 1.093.045 3.232.045 2.115 0 2.371-.007 3.233-.046 2.168-.098 3.18-1.11 3.28-3.28.037-.847.045-1.102.045-3.232 0-2.128-.008-2.382-.045-3.231-.1-2.17-1.112-3.181-3.28-3.279-.842-.038-1.095-.047-3.233-.047zm0 10.665A4.113 4.113 0 0 1 3.891 8 4.113 4.113 0 0 1 8 3.891 4.113 4.113 0 0 1 12.108 8 4.113 4.113 0 0 1 8 12.107zm0-6.774A2.67 2.67 0 0 0 5.333 8 2.67 2.67 0 0 0 8 10.666 2.67 2.67 0 0 0 10.668 8 2.67 2.67 0 0 0 8 5.333zm4.27-.643a.961.961 0 1 1 .961-.96c0 .53-.431.96-.961.96z"/></svg></svg>