<svg width="72" height="72" xmlns="http://www.w3.org/2000/svg" xmlns:xlink="http://www.w3.org/1999/xlink" xmlns:svgjs="http://svgjs.com/svgjs" fill="#fff"><svg xmlns="http://www.w3.org/2000/svg" width="72" height="72"><path paint-order="stroke fill markers" fill-rule="evenodd" d="M36 72c-5.04 0-9.901-1.506-14.45-4.474-4.544-2.967-8.627-7.296-12.136-12.87-2.973-1.263-5.438-3.477-7.13-6.402C.812 45.705 0 42.752 0 39.938c0-6.2 2.311-9.114 4.25-10.466 2.662-10.417 5.212-16.415 8.527-20.055a14.76 14.76 0 0 1 5.847-3.961c2.081-.784 4.567-1.258 7.824-1.494A13.41 13.41 0 0 1 36 0c3.633 0 7.043 1.425 9.6 4.013 3.286.25 5.79.734 7.879 1.521 2.302.87 4.215 2.166 5.85 3.965 3.293 3.623 5.81 9.596 8.417 19.973C69.686 30.824 72 33.739 72 39.938c0 2.813-.812 5.766-2.287 8.316-1.691 2.925-4.157 5.14-7.13 6.403-3.507 5.573-7.59 9.902-12.134 12.869C45.901 70.494 41.04 72 36 72zm-7.2-18c.018.056 2.067 5.651 7.2 5.651 2.763 0 4.57-1.53 5.6-2.813A10.115 10.115 0 0 0 43.2 54H28.8zm12.425-5.883c2.517 0 4.576.955 5.51 2.556 1.49 2.556 3.05 3.799 4.767 3.8 1.975 0 3.795-1.648 5.4-3.101.982-.889 1.909-1.73 2.696-1.996 1.858-.629 3.373-1.801 4.505-3.486.966-1.44 1.602-3.19 1.838-5.065.37-2.932-.321-5.598-1.681-6.484a2.135 2.135 0 0 0-1.155-.32c-.31 0-.631.06-.861.16a4.32 4.32 0 0 1-1.728.39c-1.45 0-2.367-.872-2.394-2.277-.022-1.143.707-1.794 1.413-2.422.831-.74 1.616-1.44 1.257-2.872a57.285 57.285 0 0 0-1.887-6H47.223c-2.514 3.756-6.71 6-11.223 6a13.482 13.482 0 0 1-11.223-6h-11.77c-.624 1.774-1.193 3.737-1.739 6-.276 1.148.484 1.862 1.288 2.62.753.708 1.532 1.44 1.463 2.579-.087 1.428-1.107 2.351-2.598 2.351-.543 0-1.119-.128-1.665-.369a2.126 2.126 0 0 0-.844-.164c-.434 0-.852.115-1.175.324-1.36.884-2.05 3.55-1.681 6.48.236 1.875.872 3.628 1.838 5.066 1.132 1.687 2.648 2.86 4.505 3.49.787.266 1.714 1.106 2.696 1.995 1.605 1.453 3.425 3.1 5.4 3.1 1.716 0 3.276-1.243 4.768-3.8.934-1.6 2.994-2.555 5.51-2.555 1.91 0 3.815.579 5.227 1.59 1.41-1.01 3.315-1.59 5.225-1.59zM36 6c-4.135 0-7.5 3.364-7.5 7.5 0 4.135 3.365 7.5 7.5 7.5s7.5-3.365 7.5-7.5C43.5 9.364 40.135 6 36 6zm11.25 39c-3.572 0-6.807-2.134-8.241-5.434-.131-.302-.255-.626-.374-.938-.557-1.458-1.133-2.964-2.635-2.964-1.502 0-2.078 1.506-2.635 2.963-.12.313-.243.637-.374.939C31.557 42.866 28.322 45 24.75 45c-4.963 0-9-4.038-9-9 0-4.964 4.037-9 9-9 1.623 0 3.213.444 4.598 1.287a9.158 9.158 0 0 1 3.223 3.35A11.419 11.419 0 0 1 36 31.115c1.176 0 2.298.171 3.429.522a9.163 9.163 0 0 1 3.223-3.35A8.844 8.844 0 0 1 47.25 27c4.962 0 9 4.036 9 9 0 4.962-4.038 9-9 9zm0-13.5a4.505 4.505 0 0 0-4.5 4.5c0 2.481 2.019 4.5 4.5 4.5s4.5-2.019 4.5-4.5c0-2.482-2.019-4.5-4.5-4.5zm-22.5 0a4.505 4.505 0 0 0-4.5 4.5c0 2.481 2.019 4.5 4.5 4.5s4.5-2.019 4.5-4.5c0-2.482-2.019-4.5-4.5-4.5z"/></svg></svg>