<svg width="48" height="48" xmlns="http://www.w3.org/2000/svg" xmlns:xlink="http://www.w3.org/1999/xlink" xmlns:svgjs="http://svgjs.com/svgjs" fill="#e13856"><svg xmlns="http://www.w3.org/2000/svg" width="48" height="48" viewBox="0 -0.001 48 47.999"><path paint-order="stroke fill markers" fill-rule="evenodd" d="M23.998 47.999c-1.103 0-2-.897-2-2v-9.792l-.821-.21c-3.944-.999-9.904-2.509-9.857-7.796C11.356 24.84 14.406 22 17.982 22h.02c1.102 0 2 .898 2 2.001 0 1.09-.888 1.988-1.978 2-.829.009-1.603.342-2.125.913-.404.441-.612.977-.573 1.47.18 2.064 3.732 2.952 6.082 3.54.208.052.406.101.59.149V19.333c-1.75.456-3.626.686-5.573.686-3.917 0-7.71-.926-10.68-2.607C2.46 15.555.474 12.952 0 9.882l.534-.03c.852-.042 1.729-.086 2.506-.314 1.453-.43 2.698-1.445 4.016-2.521 1.819-1.484 3.699-3.018 6.247-3.018h.083c2.588.083 4.093 1.547 5.421 2.838.806.782 1.566 1.522 2.475 1.868.174.068.414.129.716.178v-1.42a4.015 4.015 0 0 1-2-3.464c0-2.206 1.794-4 4-4 2.205 0 4 1.794 4 4 0 1.423-.766 2.75-2 3.464v1.42c.293-.046.536-.106.72-.178.909-.346 1.67-1.086 2.475-1.868 1.329-1.29 2.834-2.755 5.421-2.838h.083c2.548 0 4.428 1.534 6.247 3.018 1.318 1.076 2.563 2.092 4.016 2.521.777.228 1.654.272 2.502.315.183.008.362.018.538.028-.475 3.07-2.461 5.674-5.744 7.53-2.971 1.681-6.764 2.607-10.68 2.607-1.95 0-3.826-.231-5.578-.687v13.846c1.908.594 3.872 1.27 5.084 2.402.957.894 1.61 1.964 1.89 3.092a5.247 5.247 0 0 1-.171 3.105c-.746 2-2.584 3.294-4.797 3.377v-2c1.23-.608 1.905-1.495 1.854-2.432-.069-1.258-1.44-2.439-3.86-3.324v8.602c0 1.103-.897 2-2 2zM34.694 7.997c-1.054.034-1.946.888-2.98 1.876-1.43 1.37-3.053 2.923-5.714 3.047v2.386c1.146.417 2.848.647 4.79.647.104 0 .208 0 .312-.002-.235-.918-.353-1.938-.372-3.209a11.554 11.554 0 0 0 3.046 3.032c.984-.118 1.94-.29 2.844-.514-.716-1.066-1.165-2.226-1.458-3.758 1.148 1.174 2.561 2.04 4.45 2.72 1.072-.501 1.952-1.097 2.616-1.77-1.324-.364-2.538-1.364-3.71-2.333-1.317-1.086-2.56-2.112-3.824-2.122zM17.27 12.742v.003c-.02 1.272-.137 2.29-.372 3.206l.311.002c1.94 0 3.64-.23 4.789-.646V12.92c-2.66-.124-4.283-1.677-5.714-3.047-1.033-.988-1.925-1.842-2.978-1.876-1.263.01-2.507 1.036-3.823 2.122-1.173.969-2.387 1.969-3.711 2.333.662.671 1.542 1.268 2.616 1.77 1.887-.68 3.3-1.544 4.45-2.72-.292 1.533-.743 2.691-1.459 3.758.901.223 1.858.396 2.845.514a11.532 11.532 0 0 0 3.044-3.03l.002-.002zm2.728 32.41h-.001c-2.004-.074-3.714-1.147-4.576-2.869-.879-1.758-.692-3.833.499-5.553 1.836.531 3.372.94 4.7 1.248-1.6.822-2.476 1.84-2.468 2.87.007.887.68 1.729 1.846 2.305v1.999zm12.71-11.082c-1.086-.915-2.561-1.726-4.642-2.553l.006-.001c1.775-.513 4.458-1.289 4.604-3.133.039-.493-.17-1.029-.573-1.47-.523-.571-1.298-.904-2.127-.913a2.007 2.007 0 0 1-1.978-2c0-1.103.897-2 2-2h.022c3.577 0 6.626 2.84 6.66 6.201.016 1.208-.372 2.406-1.122 3.464-.704.993-1.69 1.825-2.85 2.404v.001z"/></svg></svg>