<svg width="72" height="72" xmlns="http://www.w3.org/2000/svg" xmlns:xlink="http://www.w3.org/1999/xlink" xmlns:svgjs="http://svgjs.com/svgjs" viewBox="0 0 71.999 72" fill="#fff"><svg xmlns="http://www.w3.org/2000/svg" width="72" height="72" viewBox="0 -0.001 72 72.001"><path paint-order="stroke fill markers" fill-rule="evenodd" d="M72 72H0v-6h3V27c5.7-3.826 10.583-6.523 15.366-8.49a17.913 17.913 0 0 0 2.184 5.588c-3.605 1.493-7.264 3.437-11.517 6.12L9 30.24v35.76h6V51h42v15h6V30.207c-3.833-2.488-7.898-4.674-11.445-6.156 1.007-1.664 1.73-3.61 2.091-5.63C58.462 20.403 63.34 23.13 69 27v39h3v6zM42 56.999v12h9V57h-9zm-9 0v12h6V57h-6zm-12 0v12h9V57h-9zm36-9h-.001H51V42h6V47.999zm-12 0h-.001-6V42h6V47.999zm-12 0h-6V42h6V47.999zm-12 0h-.001H15V42h6V47.999zm36-9h-.001H51v-6h6v6zm-12 0h-.001-6v-6h6v6zm-12 0h-6v-6h6v6zm-12 0h-.001H15v-6h6v6zm15-9C27.729 30 21 23.27 21 15 21 6.728 27.729 0 36 0S51 6.729 51 15c0 8.27-6.729 15-15 15zm-9-18v6h6v6h6v-6h6v-6h-6v-6h-6v6h-6z"/></svg></svg>