<svg width="48" height="48" xmlns="http://www.w3.org/2000/svg" xmlns:xlink="http://www.w3.org/1999/xlink" xmlns:svgjs="http://svgjs.com/svgjs" viewBox="0 0 47.999 48" fill="#fff"><svg xmlns="http://www.w3.org/2000/svg" width="48" height="48" viewBox="0 -0.001 48 48"><path paint-order="stroke fill markers" fill-rule="evenodd" d="M48 48H0v-4h2V18c3.798-2.55 7.053-4.349 10.243-5.66.271 1.308.76 2.562 1.457 3.725-2.4.994-4.84 2.29-7.678 4.08L6 20.159V44h4V34h28v10h4V20.14c-2.554-1.66-5.264-3.117-7.63-4.105a11.107 11.107 0 0 0 1.394-3.755C38.974 13.602 42.227 15.42 46 18v26h2v4zM28 38v8h6v-8h-6zm-6 0v8h4v-8h-4zm-8 0v8h6v-8h-6zm24-6h-.001H34v-4h4v4zm-8 0h-.001-4v-4h4v4zm-8 0h-.002H18v-4h4v4zm-8 0h-4v-4h4v4zm24-6h-.001H34v-4.001h4v4zm-8 0h-.001-4v-4.001h4v4zm-8 0h-.002H18v-4.001h4v4zm-8 0h-4v-4.001h4v4zm10-6c-5.514 0-10-4.487-10-10 0-5.515 4.486-10 10-10s10 4.485 10 10c0 5.513-4.486 10-10 10zM18 8v3.999h4v4h4v-4h4v-4h-4V4h-4v4h-4z"/></svg></svg>