<svg width="48" height="48" xmlns="http://www.w3.org/2000/svg" xmlns:xlink="http://www.w3.org/1999/xlink" xmlns:svgjs="http://svgjs.com/svgjs" viewBox="0 0 47.999 48" fill="#fff"><svg xmlns="http://www.w3.org/2000/svg" width="48" height="48" viewBox="0 -0.001 48 48"><path paint-order="stroke fill markers" fill-rule="evenodd" d="M24.008 48a23.955 23.955 0 0 1-16.976-7.03A23.927 23.927 0 0 1 0 24 23.915 23.915 0 0 1 7.032 7.03a23.92 23.92 0 0 1 7.631-5.144 23.868 23.868 0 0 1 9.345-1.887c2.724 0 5.4.459 7.95 1.364a24.06 24.06 0 0 1 6.82 3.76L43.146.757l2.71 14.027-14.03-2.709 4.1-4.098C32.444 5.375 28.323 4 24.008 4 12.977 4 4.002 12.972 4.002 24c0 11.027 8.975 20 20.006 20 1.599 0 3.25-.214 4.91-.637l1.33 3.788c-2.09.563-4.19.848-6.24.848zm10.006-2.204v-.001l-1.338-3.798a19.845 19.845 0 0 0 3.11-1.865l2.826 2.886a23.883 23.883 0 0 1-4.597 2.777h-.001zm7.56-5.475l-.001-.001-2.807-2.864a20.301 20.301 0 0 0 2.298-3.056l3.588 1.805a23.99 23.99 0 0 1-3.078 4.115v.001zm4.826-7.717l-3.6-1.81a19.9 19.9 0 0 0 .908-3.428l3.996.318c-.261 1.69-.7 3.345-1.303 4.919zM36 27.999h-.001-14V12h4v12h10v4zm12-4.302h-.001l-4.029-.322a20.412 20.412 0 0 0-.576-4.094h4.152A24.39 24.39 0 0 1 48 23.696v.001z"/></svg></svg>