<svg width="54" height="40" xmlns="http://www.w3.org/2000/svg" xmlns:xlink="http://www.w3.org/1999/xlink" xmlns:svgjs="http://svgjs.com/svgjs" viewBox="0.499 0 53.001 40" fill="#e13856"><svg xmlns="http://www.w3.org/2000/svg" width="54" height="40" viewBox="0 0 53 39.999"><path paint-order="stroke fill markers" fill-rule="evenodd" d="M39.75 39.999c-3.653 0-6.625-2.99-6.625-6.666h-13.25c0 3.675-2.973 6.666-6.625 6.666-3.653 0-6.625-2.99-6.625-6.666H2.208A2.218 2.218 0 0 1 0 31.111V4.443c0-1.225.99-2.221 2.208-2.221h26.5V0h4.417v2.222h2.694c1.079 0 2.093.53 2.712 1.42 1.876 2.69 7.785 11.821 7.844 11.913.026.023 3.074 2.687 4.416 3.847C52.67 21.025 53 22.322 53 24.443V30c0 1.838-1.486 3.334-3.313 3.334h-3.312c0 3.675-2.972 6.666-6.625 6.666zm.152-9.448a2.775 2.775 0 0 0-2.763 2.78 2.774 2.774 0 0 0 2.763 2.779 2.774 2.774 0 0 0 2.763-2.779c0-1.533-1.24-2.78-2.763-2.78zm-26.5 0a2.775 2.775 0 0 0-2.762 2.78 2.774 2.774 0 0 0 2.763 2.779 2.773 2.773 0 0 0 2.762-2.779c0-1.533-1.24-2.78-2.762-2.78zm26.348-3.885c1.882 0 3.681.81 4.936 2.223h3.897v-4.446c0-1.09 0-1.09-.67-1.67L44.724 20H26.5V6.665H4.416V28.89h3.898a6.61 6.61 0 0 1 4.936-2.223c1.882 0 3.68.81 4.935 2.223h16.63a6.61 6.61 0 0 1 4.935-2.223zm-8.833-20v8.89h10.182c-1.587-2.439-4.457-6.838-5.859-8.89h-4.323zM17.667 22.22h-.001-4.416v-4.443H8.833v-4.445h4.417V8.89h4.417v4.444h4.416v4.445h-4.416v4.442z"/></svg></svg>