<svg width="53" height="48" xmlns="http://www.w3.org/2000/svg" xmlns:xlink="http://www.w3.org/1999/xlink" xmlns:svgjs="http://svgjs.com/svgjs" viewBox="0.5 0 52 48" fill="#e13856"><svg xmlns="http://www.w3.org/2000/svg" width="53" height="48" viewBox="0 -0.001 52 48"><path paint-order="stroke fill markers" fill-rule="evenodd" d="M42.005 48v-.002l-2.234-2.322 1.562-1.571a1.812 1.812 0 0 0 0-2.548l-3.397-3.422 4.344-4.374 3.398 3.42c.337.34.786.528 1.265.528.479 0 .928-.187 1.265-.527l1.563-1.571L52 37.856l-9.996 10.142V48zm-12.6-4.364v-.001L26.36 40.57l1.304-1.31a1.82 1.82 0 0 0 0-2.551l-16.54-16.654c-.008-1.074.34-2.42 1.008-3.89a19.768 19.768 0 0 1 2.148-3.608L2.166-.001H7.76l9.61 9.54c2.007-1.53 4.98-3.164 7.304-3.164h.037l16.537 16.65a1.779 1.779 0 0 0 2.533 0l1.302-1.308 3.044 3.066-18.72 18.852v.001zm3.196-15.629l.001.001 1.503 1.511-3.72 3.747 1.524 1.536 7.452-7.508-16.095-16.211c-1.443.623-3.02 1.753-4.44 3.183-1.417 1.428-2.488 2.964-3.016 4.325l3.913 3.94 3.718-3.748 1.503 1.51-3.72 3.75 1.563 1.573 3.718-3.749 1.504 1.513-3.723 3.746 1.534 1.545 3.718-3.746 1.504 1.51-3.72 3.748 1.562 1.57 3.717-3.745v-.001zM3.724 16.929C1.671 16.929 0 15.247 0 13.18c0-2.013 1.407-4.125 3.537-7.323l.187-.281.172.258c2.137 3.209 3.549 5.328 3.549 7.346 0 2.067-1.67 3.749-3.72 3.749z"/></svg></svg>