<svg width="98" height="89" xmlns="http://www.w3.org/2000/svg" xmlns:xlink="http://www.w3.org/1999/xlink" xmlns:svgjs="http://svgjs.com/svgjs" viewBox="0.455 0 97.091 89" fill="#fff"><svg xmlns="http://www.w3.org/2000/svg" width="98" height="89" viewBox="1 -0.001 96 88"><path paint-order="stroke fill markers" fill-rule="evenodd" d="M56.68 88c-5.334 0-10.117-1.43-14.216-4.247-4.003-2.751-7.187-6.707-9.464-11.757-2.007-1.203-3.845-3.06-5.315-5.367-1.38-2.167-2.313-4.564-2.625-6.75-5.373-4.139-11.426-11.221-16.193-18.945-2.364-3.83-4.324-7.695-5.669-11.172C1.74 25.99 1 22.713 1 20.028c0-2.308.444-4.44 1.32-6.338.827-1.794 2.042-3.387 3.612-4.737C8.885 6.415 13.044 4.77 17.96 4.199A8 8 0 0 1 25 0c4.412 0 8 3.589 8 8 0 4.412-3.588 8-8 8a7.99 7.99 0 0 1-6.784-3.763c-4.096.597-6.753 1.88-8.122 3.922-1.172 1.75-1.38 4.042-.638 7.006 1.223 4.96 4.704 11.767 9.311 18.213 4.817 6.737 10.037 11.94 14.32 14.27 1.603.88 2.776 1.257 3.921 1.257 1.146 0 2.318-.374 3.92-1.248 2.6-1.415 5.406-3.71 8.34-6.824 2.656-2.817 5.329-6.233 7.73-9.875 2.323-3.526 4.298-7.117 5.712-10.385 1.462-3.381 2.254-6.268 2.29-8.348.076-4.434-3.02-7.128-9.2-8.01A7.969 7.969 0 0 1 49 16c-4.412 0-8-3.59-8-8 0-4.412 3.588-8 8-8a8.01 8.01 0 0 1 7.036 4.187c5.252.598 9.602 2.41 12.58 5.241a13.79 13.79 0 0 1 3.421 5.092c.767 2.003 1.08 4.231.93 6.623-.178 2.758-1.032 6.027-2.54 9.716-1.395 3.417-3.36 7.168-5.678 10.846a86.812 86.812 0 0 1-7.57 10.256c-2.757 3.193-5.597 5.94-8.215 7.943-.2 2.201-.928 4.42-2.106 6.411a15.402 15.402 0 0 1-5.07 5.22c1.72 2.79 3.888 4.937 6.44 6.382 2.46 1.394 5.212 2.1 8.178 2.1.739 0 1.497-.044 2.254-.134 3.081-.36 6.241-1.634 9.14-3.682 2.668-1.886 5.048-4.403 6.7-7.09a14.183 14.183 0 0 1-4.004-4.82A13.814 13.814 0 0 1 69 57.998c0-7.721 6.28-14.004 14-14.004S97 50.278 97 58c0 1.847-.358 3.646-1.063 5.35a13.938 13.938 0 0 1-2.949 4.455c-2.648 2.696-6.236 4.18-10.103 4.18-.263 0-.531-.007-.797-.02-2.366 4.368-6.029 8.35-10.31 11.215C67.065 86.333 61.844 88 56.68 88zM83 52c-3.309 0-6 2.691-6 6 0 3.308 2.691 6 6 6 3.308 0 6-2.692 6-6 0-3.309-2.692-6-6-6z"/></svg></svg>