<svg width="48" height="36" xmlns="http://www.w3.org/2000/svg" xmlns:xlink="http://www.w3.org/1999/xlink" xmlns:svgjs="http://svgjs.com/svgjs" viewBox="0.001 0 47.999 36" fill="#e13856"><svg xmlns="http://www.w3.org/2000/svg" width="48" height="36" viewBox="0 -0.001 48 36.001"><path paint-order="stroke fill markers" fill-rule="evenodd" d="M37.602 36c-3.07 0-5.934-1.172-8.062-3.297C27.224 30.388 26 27.189 26 23.45c0-2.558.473-5.136 1.407-7.663a24.677 24.677 0 0 1 4.012-7.014A24.93 24.93 0 0 1 45.999 0l1.97 4.252c-2.064.778-4.151 2.507-5.88 4.87-1.59 2.175-2.668 4.651-2.881 6.622A10.424 10.424 0 0 1 48 26.041c0 2.975-1.12 5.522-3.238 7.366C42.87 35.054 40.26 36 37.602 36zm-26 0c-3.071 0-5.934-1.172-8.062-3.297C1.224 30.388 0 27.189 0 23.45c0-2.558.473-5.136 1.407-7.663A24.681 24.681 0 0 1 5.42 8.773 24.93 24.93 0 0 1 19.999 0l1.97 4.252c-2.064.778-4.152 2.507-5.88 4.87-1.59 2.175-2.667 4.651-2.88 6.622a10.424 10.424 0 0 1 8.79 10.298c0 2.975-1.119 5.522-3.237 7.366C16.87 35.054 14.26 36 11.602 36z"/></svg></svg>