<svg width="16" height="14" xmlns="http://www.w3.org/2000/svg" xmlns:xlink="http://www.w3.org/1999/xlink" xmlns:svgjs="http://svgjs.com/svgjs" viewBox="0 0.498 16 13.005" fill="#fff"><svg xmlns="http://www.w3.org/2000/svg" width="16" height="14" viewBox="0 -0.001 16 13.005"><path paint-order="stroke fill markers" fill-rule="evenodd" d="M16 1.54a6.587 6.587 0 0 1-1.885.517A3.297 3.297 0 0 0 15.559.24a6.55 6.55 0 0 1-2.086.797A3.273 3.273 0 0 0 11.08-.001a3.286 3.286 0 0 0-3.2 4.032A9.326 9.326 0 0 1 1.116.6 3.288 3.288 0 0 0 2.13 4.984a3.278 3.278 0 0 1-1.486-.411C.61 6.093 1.7 7.515 3.28 7.833a3.296 3.296 0 0 1-1.483.056 3.288 3.288 0 0 0 3.067 2.279A6.608 6.608 0 0 1 0 11.528a9.29 9.29 0 0 0 5.03 1.476c6.097 0 9.54-5.148 9.331-9.766A6.618 6.618 0 0 0 16 1.54z"/></svg></svg>