<svg width="16" height="14" xmlns="http://www.w3.org/2000/svg" xmlns:xlink="http://www.w3.org/1999/xlink" xmlns:svgjs="http://svgjs.com/svgjs" viewBox="0 0.498 16 13.004" fill="#e13856"><svg xmlns="http://www.w3.org/2000/svg" width="16" height="14" viewBox="0 0 16 13.004"><path paint-order="stroke fill markers" fill-rule="evenodd" d="M16 1.54a6.551 6.551 0 0 1-1.885.517A3.295 3.295 0 0 0 15.559.24a6.578 6.578 0 0 1-2.086.795A3.285 3.285 0 0 0 7.88 4.03 9.322 9.322 0 0 1 1.115.6 3.288 3.288 0 0 0 2.13 4.983a3.279 3.279 0 0 1-1.486-.41C.61 6.092 1.7 7.515 3.28 7.832a3.28 3.28 0 0 1-1.483.055 3.287 3.287 0 0 0 3.067 2.28A6.604 6.604 0 0 1 0 11.528a9.28 9.28 0 0 0 5.03 1.475c6.097 0 9.54-5.148 9.331-9.765A6.618 6.618 0 0 0 16 1.539z"/></svg></svg>