<svg width="21" height="21" xmlns="http://www.w3.org/2000/svg" xmlns:xlink="http://www.w3.org/1999/xlink" xmlns:svgjs="http://svgjs.com/svgjs" fill="#fff"><svg xmlns="http://www.w3.org/2000/svg" width="21" height="21" viewBox="1 1 20 20"><path paint-order="stroke fill markers" fill-rule="evenodd" d="M21 21h-.001-20c0-2.034 2.088-6.685 5.495-8.185A7.431 7.431 0 0 0 11 14.335c1.63 0 3.187-.526 4.502-1.517 1.476.669 2.896 2.054 3.998 3.9.91 1.525 1.5 3.205 1.5 4.28V21zm-10-8.333a5.84 5.84 0 0 1-5.833-5.833A5.84 5.84 0 0 1 11 1a5.84 5.84 0 0 1 5.834 5.834A5.841 5.841 0 0 1 11 12.667z"/></svg></svg>