<svg width="72" height="61" xmlns="http://www.w3.org/2000/svg" xmlns:xlink="http://www.w3.org/1999/xlink" xmlns:svgjs="http://svgjs.com/svgjs" viewBox="0 0.5 72 60" fill="#fff"><svg xmlns="http://www.w3.org/2000/svg" width="72" height="61" viewBox="0 -0.001 72 60"><path paint-order="stroke fill markers" fill-rule="evenodd" d="M66 60H6c-3.308 0-6-2.692-6-6V18c0-3.31 2.692-6 6-6h15V6c0-3.31 2.691-6 6-6h18c3.308 0 6 2.69 6 6v6h15c3.308 0 6 2.69 6 6v36c0 3.308-2.692 6-6 6zM7.5 18c-.827 0-1.5.673-1.5 1.5v32.999c0 .827.673 1.5 1.5 1.5h57c.827 0 1.5-.673 1.5-1.5v-33c0-.826-.673-1.5-1.5-1.5h-57zm21-12c-.827 0-1.5.673-1.5 1.499v4.5h18V7.5c0-.826-.673-1.5-1.5-1.5h-15zM39 47.999h-.001H33v-9h-9v-6h9V24h6v9h9v6h-9v8.999z"/></svg></svg>